%
M48
M72
T01C0.01378
T02C0.02756
T03C0.04724
T04C0.13228
%
T01
X79750Y42125
X119675Y80925
X119950Y88450
X137550Y90225
X149350Y83950
X153850Y82250
X167250Y82550
X180875Y70925
X160907Y58500
X165025Y55050
X176060Y56885
X166485Y46800
X149425Y68125
X163850Y98850
X160450Y101639
X156525Y114150
X152547Y114300
X134877Y127200
X135400Y140700
X128536Y156375
X127625Y169625
X103550Y144475
X100500Y140600
X88075Y147575
X78775Y141750
X70350Y158050
X85775Y124300
X46800Y93325
X30750Y103225
X162525Y131250
X163050Y137750
X171650Y131575
X179400Y106650
X196700Y100425
X202700Y92425
X210350Y93850
X206975Y100425
X233200Y96875
X236975Y78675
X269775Y98350
X269525Y136450
X268525Y157750
X248875Y43825
X272925Y18850
X211075Y15525
T02
X83400Y77575
X83400Y87181
X83400Y96575
T03
X21700Y133920
X21700Y147700
T04
X13111Y13111
X13111Y166654
X280828Y166654
X284765Y9174
M30
