G75*
%MOIN*%
%OFA0B0*%
%FSLAX25Y25*%
%IPPOS*%
%LPD*%
%AMOC8*
5,1,8,0,0,1.08239X$1,22.5*
%
%ADD10R,0.07087X0.06299*%
%ADD11R,0.06299X0.07087*%
%ADD12R,0.08000X0.08000*%
%ADD13C,0.08000*%
%ADD14C,0.04756*%
%ADD15R,0.07874X0.06299*%
%ADD16R,0.06299X0.07874*%
%ADD17R,0.09055X0.12598*%
%ADD18C,0.00600*%
%ADD19C,0.02978*%
D10*
X0100263Y0066788D03*
X0100263Y0077812D03*
X0099938Y0096263D03*
X0099938Y0107287D03*
X0131600Y0090387D03*
X0131600Y0079363D03*
D11*
X0169838Y0064250D03*
X0180862Y0064250D03*
X0161087Y0120725D03*
X0150063Y0120725D03*
X0140262Y0126650D03*
X0129238Y0126650D03*
D12*
X0021700Y0147700D03*
D13*
X0021700Y0133920D03*
D14*
X0083400Y0096575D03*
X0083400Y0087181D03*
X0083400Y0077575D03*
D15*
X0193850Y0081338D03*
X0193850Y0092362D03*
X0224775Y0102188D03*
X0224775Y0113212D03*
X0113550Y0155213D03*
X0113550Y0166237D03*
X0093250Y0165137D03*
X0093250Y0154113D03*
D16*
X0153613Y0091425D03*
X0164637Y0091425D03*
G36*
X0274907Y0109205D02*
X0274896Y0102908D01*
X0267023Y0102921D01*
X0267034Y0109218D01*
X0274907Y0109205D01*
G37*
G36*
X0274927Y0120229D02*
X0274916Y0113932D01*
X0267043Y0113945D01*
X0267054Y0120242D01*
X0274927Y0120229D01*
G37*
D17*
G36*
X0048135Y0171003D02*
X0057187Y0170908D01*
X0057055Y0158311D01*
X0048003Y0158406D01*
X0048135Y0171003D01*
G37*
G36*
X0025695Y0171238D02*
X0034747Y0171143D01*
X0034615Y0158546D01*
X0025563Y0158641D01*
X0025695Y0171238D01*
G37*
D18*
X0021845Y0006410D02*
X0021335Y0005900D01*
X0274343Y0005900D01*
X0273850Y0007737D01*
X0273850Y0010611D01*
X0274594Y0013387D01*
X0276031Y0015875D01*
X0278063Y0017908D01*
X0280552Y0019344D01*
X0283328Y0020088D01*
X0286201Y0020088D01*
X0288039Y0019596D01*
X0288039Y0158430D01*
X0287529Y0157921D01*
X0285040Y0156484D01*
X0282264Y0155740D01*
X0279391Y0155740D01*
X0276615Y0156484D01*
X0274126Y0157921D01*
X0272094Y0159953D01*
X0270657Y0162442D01*
X0269913Y0165217D01*
X0269913Y0168091D01*
X0270657Y0170867D01*
X0272094Y0173356D01*
X0272604Y0173865D01*
X0021335Y0173865D01*
X0021845Y0173356D01*
X0023281Y0170867D01*
X0024025Y0168091D01*
X0024025Y0165217D01*
X0023281Y0162442D01*
X0021845Y0159953D01*
X0019812Y0157921D01*
X0017324Y0156484D01*
X0014548Y0155740D01*
X0011674Y0155740D01*
X0008898Y0156484D01*
X0006410Y0157921D01*
X0005900Y0158430D01*
X0005900Y0021335D01*
X0006410Y0021845D01*
X0008898Y0023281D01*
X0011674Y0024025D01*
X0014548Y0024025D01*
X0017324Y0023281D01*
X0019812Y0021845D01*
X0021845Y0019812D01*
X0023281Y0017324D01*
X0024025Y0014548D01*
X0024025Y0011674D01*
X0023281Y0008898D01*
X0021845Y0006410D01*
X0022004Y0006687D02*
X0274132Y0006687D01*
X0273972Y0007285D02*
X0022350Y0007285D01*
X0022696Y0007884D02*
X0273850Y0007884D01*
X0273850Y0008482D02*
X0023041Y0008482D01*
X0023330Y0009081D02*
X0273850Y0009081D01*
X0273850Y0009679D02*
X0023491Y0009679D01*
X0023651Y0010278D02*
X0273850Y0010278D01*
X0273921Y0010876D02*
X0023811Y0010876D01*
X0023972Y0011475D02*
X0274082Y0011475D01*
X0274242Y0012073D02*
X0213264Y0012073D01*
X0212727Y0011536D02*
X0218841Y0017650D01*
X0270746Y0017650D01*
X0271935Y0016461D01*
X0273915Y0016461D01*
X0275314Y0017860D01*
X0275314Y0019542D01*
X0286972Y0031200D01*
X0286972Y0031200D01*
X0287675Y0031903D01*
X0287675Y0140297D01*
X0270914Y0157058D01*
X0270914Y0158740D01*
X0269515Y0160139D01*
X0267535Y0160139D01*
X0266136Y0158740D01*
X0266136Y0156760D01*
X0266381Y0156515D01*
X0227128Y0117261D01*
X0220465Y0117261D01*
X0219938Y0116734D01*
X0219938Y0109689D01*
X0220465Y0109162D01*
X0229085Y0109162D01*
X0229612Y0109689D01*
X0229612Y0116352D01*
X0268621Y0155361D01*
X0269217Y0155361D01*
X0285275Y0139303D01*
X0285275Y0032897D01*
X0273617Y0021239D01*
X0271935Y0021239D01*
X0270746Y0020050D01*
X0226759Y0020050D01*
X0184911Y0061897D01*
X0184911Y0068166D01*
X0184384Y0068693D01*
X0182062Y0068693D01*
X0182062Y0068733D01*
X0183264Y0069935D01*
X0183264Y0071915D01*
X0181865Y0073314D01*
X0179885Y0073314D01*
X0178486Y0071915D01*
X0178486Y0069935D01*
X0179662Y0068760D01*
X0179662Y0068693D01*
X0177339Y0068693D01*
X0176812Y0068166D01*
X0176812Y0060334D01*
X0177339Y0059807D01*
X0183608Y0059807D01*
X0223365Y0020050D01*
X0217847Y0020050D01*
X0217144Y0019347D01*
X0213464Y0015667D01*
X0213464Y0016515D01*
X0212065Y0017914D01*
X0210383Y0017914D01*
X0185147Y0043150D01*
X0180247Y0043150D01*
X0167414Y0055983D01*
X0167414Y0056040D01*
X0166015Y0057439D01*
X0164035Y0057439D01*
X0162636Y0056040D01*
X0162636Y0054060D01*
X0164035Y0052661D01*
X0166015Y0052661D01*
X0166678Y0053325D01*
X0176678Y0043325D01*
X0082647Y0043325D01*
X0100760Y0061438D01*
X0101463Y0062141D01*
X0101463Y0062739D01*
X0104179Y0062739D01*
X0104706Y0063266D01*
X0104706Y0069534D01*
X0110184Y0075012D01*
X0119403Y0075012D01*
X0122554Y0078163D01*
X0127157Y0078163D01*
X0127157Y0075841D01*
X0127684Y0075314D01*
X0135516Y0075314D01*
X0136043Y0075841D01*
X0136043Y0078163D01*
X0145260Y0078163D01*
X0148658Y0081561D01*
X0150340Y0081561D01*
X0151461Y0082683D01*
X0151461Y0081260D01*
X0152860Y0079861D01*
X0154840Y0079861D01*
X0156239Y0081260D01*
X0156239Y0083240D01*
X0155050Y0084429D01*
X0155050Y0086588D01*
X0157136Y0086588D01*
X0157663Y0087115D01*
X0157663Y0095735D01*
X0157136Y0096262D01*
X0150091Y0096262D01*
X0149564Y0095735D01*
X0149564Y0087115D01*
X0150091Y0086588D01*
X0152650Y0086588D01*
X0152650Y0084429D01*
X0151739Y0083517D01*
X0151739Y0084940D01*
X0150340Y0086339D01*
X0148360Y0086339D01*
X0146961Y0084940D01*
X0146961Y0083258D01*
X0144266Y0080563D01*
X0136043Y0080563D01*
X0136043Y0082886D01*
X0135516Y0083413D01*
X0127684Y0083413D01*
X0127157Y0082886D01*
X0127157Y0080563D01*
X0122064Y0080563D01*
X0122064Y0081915D01*
X0120665Y0083314D01*
X0118685Y0083314D01*
X0117286Y0081915D01*
X0117286Y0080233D01*
X0116065Y0079012D01*
X0104706Y0079012D01*
X0104706Y0081334D01*
X0104179Y0081861D01*
X0096347Y0081861D01*
X0095820Y0081334D01*
X0095820Y0078775D01*
X0086451Y0078775D01*
X0086179Y0079432D01*
X0085257Y0080354D01*
X0084052Y0080853D01*
X0082748Y0080853D01*
X0081543Y0080354D01*
X0080621Y0079432D01*
X0080122Y0078227D01*
X0080122Y0076923D01*
X0080621Y0075718D01*
X0081543Y0074796D01*
X0082748Y0074297D01*
X0084052Y0074297D01*
X0085257Y0074796D01*
X0086179Y0075718D01*
X0086451Y0076375D01*
X0095820Y0076375D01*
X0095820Y0074289D01*
X0096347Y0073762D01*
X0104179Y0073762D01*
X0104706Y0074289D01*
X0104706Y0076612D01*
X0108390Y0076612D01*
X0102616Y0070838D01*
X0096347Y0070838D01*
X0095820Y0070311D01*
X0095820Y0063266D01*
X0096347Y0062739D01*
X0098667Y0062739D01*
X0080442Y0044514D01*
X0078760Y0044514D01*
X0077361Y0043115D01*
X0077361Y0041135D01*
X0078760Y0039736D01*
X0080740Y0039736D01*
X0081929Y0040925D01*
X0176815Y0040925D01*
X0205501Y0012239D01*
X0206204Y0011536D01*
X0212727Y0011536D01*
X0212230Y0012736D02*
X0218344Y0018850D01*
X0226262Y0018850D01*
X0226475Y0018850D01*
X0272925Y0018850D01*
X0286475Y0032400D01*
X0286475Y0139800D01*
X0268525Y0157750D01*
X0268525Y0156962D01*
X0224775Y0113212D01*
X0229612Y0113222D02*
X0266491Y0113222D01*
X0266668Y0113045D02*
X0275287Y0113030D01*
X0275815Y0113556D01*
X0275828Y0120601D01*
X0275301Y0121129D01*
X0270725Y0121137D01*
X0270725Y0134271D01*
X0271914Y0135460D01*
X0271914Y0137440D01*
X0270515Y0138839D01*
X0268535Y0138839D01*
X0267136Y0137440D01*
X0267136Y0135460D01*
X0268325Y0134271D01*
X0268325Y0121141D01*
X0266682Y0121144D01*
X0266154Y0120618D01*
X0266141Y0113573D01*
X0266668Y0113045D01*
X0266142Y0113820D02*
X0229612Y0113820D01*
X0229612Y0114419D02*
X0266143Y0114419D01*
X0266144Y0115017D02*
X0229612Y0115017D01*
X0229612Y0115616D02*
X0266145Y0115616D01*
X0266146Y0116214D02*
X0229612Y0116214D01*
X0230073Y0116813D02*
X0266147Y0116813D01*
X0266148Y0117411D02*
X0230671Y0117411D01*
X0231270Y0118010D02*
X0266149Y0118010D01*
X0266150Y0118608D02*
X0231868Y0118608D01*
X0232467Y0119207D02*
X0266151Y0119207D01*
X0266152Y0119805D02*
X0233065Y0119805D01*
X0233664Y0120404D02*
X0266153Y0120404D01*
X0266540Y0121002D02*
X0234262Y0121002D01*
X0234861Y0121601D02*
X0268325Y0121601D01*
X0268325Y0122199D02*
X0235460Y0122199D01*
X0236058Y0122798D02*
X0268325Y0122798D01*
X0268325Y0123396D02*
X0236657Y0123396D01*
X0237255Y0123995D02*
X0268325Y0123995D01*
X0268325Y0124593D02*
X0237854Y0124593D01*
X0238452Y0125192D02*
X0268325Y0125192D01*
X0268325Y0125790D02*
X0239051Y0125790D01*
X0239649Y0126389D02*
X0268325Y0126389D01*
X0268325Y0126987D02*
X0240248Y0126987D01*
X0240846Y0127586D02*
X0268325Y0127586D01*
X0268325Y0128184D02*
X0241445Y0128184D01*
X0242043Y0128783D02*
X0268325Y0128783D01*
X0268325Y0129381D02*
X0242642Y0129381D01*
X0243240Y0129980D02*
X0268325Y0129980D01*
X0268325Y0130578D02*
X0243839Y0130578D01*
X0244437Y0131177D02*
X0268325Y0131177D01*
X0268325Y0131775D02*
X0245036Y0131775D01*
X0245634Y0132374D02*
X0268325Y0132374D01*
X0268325Y0132972D02*
X0246233Y0132972D01*
X0246831Y0133571D02*
X0268325Y0133571D01*
X0268325Y0134170D02*
X0247430Y0134170D01*
X0248028Y0134768D02*
X0267828Y0134768D01*
X0267230Y0135367D02*
X0248627Y0135367D01*
X0249225Y0135965D02*
X0267136Y0135965D01*
X0267136Y0136564D02*
X0249824Y0136564D01*
X0250422Y0137162D02*
X0267136Y0137162D01*
X0267457Y0137761D02*
X0251021Y0137761D01*
X0251619Y0138359D02*
X0268056Y0138359D01*
X0269525Y0136450D02*
X0269525Y0118546D01*
X0270985Y0117087D01*
X0275821Y0116813D02*
X0285275Y0116813D01*
X0285275Y0117411D02*
X0275822Y0117411D01*
X0275823Y0118010D02*
X0285275Y0118010D01*
X0285275Y0118608D02*
X0275824Y0118608D01*
X0275825Y0119207D02*
X0285275Y0119207D01*
X0285275Y0119805D02*
X0275826Y0119805D01*
X0275827Y0120404D02*
X0285275Y0120404D01*
X0285275Y0121002D02*
X0275428Y0121002D01*
X0270725Y0121601D02*
X0285275Y0121601D01*
X0285275Y0122199D02*
X0270725Y0122199D01*
X0270725Y0122798D02*
X0285275Y0122798D01*
X0285275Y0123396D02*
X0270725Y0123396D01*
X0270725Y0123995D02*
X0285275Y0123995D01*
X0285275Y0124593D02*
X0270725Y0124593D01*
X0270725Y0125192D02*
X0285275Y0125192D01*
X0285275Y0125790D02*
X0270725Y0125790D01*
X0270725Y0126389D02*
X0285275Y0126389D01*
X0285275Y0126987D02*
X0270725Y0126987D01*
X0270725Y0127586D02*
X0285275Y0127586D01*
X0285275Y0128184D02*
X0270725Y0128184D01*
X0270725Y0128783D02*
X0285275Y0128783D01*
X0285275Y0129381D02*
X0270725Y0129381D01*
X0270725Y0129980D02*
X0285275Y0129980D01*
X0285275Y0130578D02*
X0270725Y0130578D01*
X0270725Y0131177D02*
X0285275Y0131177D01*
X0285275Y0131775D02*
X0270725Y0131775D01*
X0270725Y0132374D02*
X0285275Y0132374D01*
X0285275Y0132972D02*
X0270725Y0132972D01*
X0270725Y0133571D02*
X0285275Y0133571D01*
X0285275Y0134170D02*
X0270725Y0134170D01*
X0271222Y0134768D02*
X0285275Y0134768D01*
X0285275Y0135367D02*
X0271820Y0135367D01*
X0271914Y0135965D02*
X0285275Y0135965D01*
X0285275Y0136564D02*
X0271914Y0136564D01*
X0271914Y0137162D02*
X0285275Y0137162D01*
X0285275Y0137761D02*
X0271593Y0137761D01*
X0270994Y0138359D02*
X0285275Y0138359D01*
X0285275Y0138958D02*
X0252218Y0138958D01*
X0252816Y0139556D02*
X0285022Y0139556D01*
X0284423Y0140155D02*
X0253415Y0140155D01*
X0254013Y0140753D02*
X0283825Y0140753D01*
X0283226Y0141352D02*
X0254612Y0141352D01*
X0255210Y0141950D02*
X0282628Y0141950D01*
X0282029Y0142549D02*
X0255809Y0142549D01*
X0256407Y0143147D02*
X0281431Y0143147D01*
X0280832Y0143746D02*
X0257006Y0143746D01*
X0257604Y0144344D02*
X0280234Y0144344D01*
X0279635Y0144943D02*
X0258203Y0144943D01*
X0258801Y0145541D02*
X0279037Y0145541D01*
X0278438Y0146140D02*
X0259400Y0146140D01*
X0259998Y0146738D02*
X0277840Y0146738D01*
X0277241Y0147337D02*
X0260597Y0147337D01*
X0261196Y0147935D02*
X0276643Y0147935D01*
X0276044Y0148534D02*
X0261794Y0148534D01*
X0262393Y0149132D02*
X0275446Y0149132D01*
X0274847Y0149731D02*
X0262991Y0149731D01*
X0263590Y0150329D02*
X0274249Y0150329D01*
X0273650Y0150928D02*
X0264188Y0150928D01*
X0264787Y0151526D02*
X0273052Y0151526D01*
X0272453Y0152125D02*
X0265385Y0152125D01*
X0265984Y0152723D02*
X0271855Y0152723D01*
X0271256Y0153322D02*
X0266582Y0153322D01*
X0267181Y0153920D02*
X0270658Y0153920D01*
X0270059Y0154519D02*
X0267779Y0154519D01*
X0268378Y0155117D02*
X0269461Y0155117D01*
X0271059Y0156913D02*
X0275872Y0156913D01*
X0274835Y0157511D02*
X0270914Y0157511D01*
X0270914Y0158110D02*
X0273937Y0158110D01*
X0273338Y0158708D02*
X0270914Y0158708D01*
X0270347Y0159307D02*
X0272740Y0159307D01*
X0272141Y0159905D02*
X0269748Y0159905D01*
X0271430Y0161103D02*
X0097575Y0161103D01*
X0097560Y0161087D02*
X0098087Y0161614D01*
X0098087Y0163937D01*
X0108713Y0163937D01*
X0108713Y0162714D01*
X0109240Y0162187D01*
X0117860Y0162187D01*
X0118387Y0162714D01*
X0118387Y0165037D01*
X0124734Y0165037D01*
X0126933Y0167236D01*
X0128615Y0167236D01*
X0130014Y0168635D01*
X0130014Y0170615D01*
X0128615Y0172014D01*
X0126635Y0172014D01*
X0125236Y0170615D01*
X0125236Y0168933D01*
X0123740Y0167437D01*
X0118387Y0167437D01*
X0118387Y0169759D01*
X0117860Y0170286D01*
X0109240Y0170286D01*
X0108713Y0169759D01*
X0108713Y0166337D01*
X0098087Y0166337D01*
X0098087Y0168659D01*
X0097560Y0169186D01*
X0088940Y0169186D01*
X0088413Y0168659D01*
X0088413Y0161997D01*
X0078278Y0151862D01*
X0077575Y0151159D01*
X0077575Y0143929D01*
X0076386Y0142740D01*
X0076386Y0140760D01*
X0077785Y0139361D01*
X0079765Y0139361D01*
X0081164Y0140760D01*
X0081164Y0142740D01*
X0079975Y0143929D01*
X0079975Y0150165D01*
X0090897Y0161087D01*
X0097560Y0161087D01*
X0098087Y0161701D02*
X0271085Y0161701D01*
X0270739Y0162300D02*
X0117972Y0162300D01*
X0118387Y0162898D02*
X0270535Y0162898D01*
X0270374Y0163497D02*
X0118387Y0163497D01*
X0118387Y0164095D02*
X0270214Y0164095D01*
X0270054Y0164694D02*
X0118387Y0164694D01*
X0118387Y0167686D02*
X0123989Y0167686D01*
X0124588Y0168285D02*
X0118387Y0168285D01*
X0118387Y0168883D02*
X0125186Y0168883D01*
X0125236Y0169482D02*
X0118387Y0169482D01*
X0118066Y0170080D02*
X0125236Y0170080D01*
X0125300Y0170679D02*
X0058086Y0170679D01*
X0058092Y0171272D02*
X0057570Y0171805D01*
X0047770Y0171908D01*
X0047237Y0171386D01*
X0047098Y0158043D01*
X0047619Y0157510D01*
X0057420Y0157407D01*
X0057952Y0157929D01*
X0058010Y0163457D01*
X0062870Y0163457D01*
X0067961Y0158367D01*
X0067961Y0157060D01*
X0069360Y0155661D01*
X0071340Y0155661D01*
X0072739Y0157060D01*
X0072739Y0159040D01*
X0071340Y0160439D01*
X0069360Y0160439D01*
X0069322Y0160400D01*
X0063865Y0165857D01*
X0058035Y0165857D01*
X0058092Y0171272D01*
X0058087Y0171277D02*
X0125899Y0171277D01*
X0126497Y0171876D02*
X0050814Y0171876D01*
X0047738Y0171876D02*
X0035291Y0171876D01*
X0035131Y0172040D02*
X0035652Y0171507D01*
X0035513Y0158164D01*
X0034980Y0157642D01*
X0025180Y0157745D01*
X0024945Y0157985D01*
X0022900Y0155940D01*
X0022900Y0152600D01*
X0026073Y0152600D01*
X0026600Y0152073D01*
X0026600Y0143327D01*
X0026073Y0142800D01*
X0017327Y0142800D01*
X0016800Y0143327D01*
X0016800Y0152073D01*
X0017327Y0152600D01*
X0020500Y0152600D01*
X0020500Y0156934D01*
X0024688Y0161122D01*
X0024798Y0171621D01*
X0025330Y0172143D01*
X0035131Y0172040D01*
X0035650Y0171277D02*
X0047236Y0171277D01*
X0047230Y0170679D02*
X0035644Y0170679D01*
X0035637Y0170080D02*
X0047224Y0170080D01*
X0047218Y0169482D02*
X0035631Y0169482D01*
X0035625Y0168883D02*
X0047211Y0168883D01*
X0047205Y0168285D02*
X0035619Y0168285D01*
X0035612Y0167686D02*
X0047199Y0167686D01*
X0047192Y0167088D02*
X0035606Y0167088D01*
X0035600Y0166489D02*
X0047186Y0166489D01*
X0047180Y0165891D02*
X0035593Y0165891D01*
X0035587Y0165292D02*
X0047174Y0165292D01*
X0047167Y0164694D02*
X0035581Y0164694D01*
X0035575Y0164095D02*
X0047161Y0164095D01*
X0047155Y0163497D02*
X0035568Y0163497D01*
X0035562Y0162898D02*
X0047149Y0162898D01*
X0047142Y0162300D02*
X0035556Y0162300D01*
X0035550Y0161701D02*
X0047136Y0161701D01*
X0047130Y0161103D02*
X0035543Y0161103D01*
X0035537Y0160504D02*
X0047124Y0160504D01*
X0047117Y0159905D02*
X0035531Y0159905D01*
X0035524Y0159307D02*
X0047111Y0159307D01*
X0047105Y0158708D02*
X0035518Y0158708D01*
X0035457Y0158110D02*
X0047098Y0158110D01*
X0047618Y0157511D02*
X0024471Y0157511D01*
X0023873Y0156913D02*
X0068109Y0156913D01*
X0067961Y0157511D02*
X0057526Y0157511D01*
X0057954Y0158110D02*
X0067961Y0158110D01*
X0067619Y0158708D02*
X0057960Y0158708D01*
X0057967Y0159307D02*
X0067021Y0159307D01*
X0066422Y0159905D02*
X0057973Y0159905D01*
X0057979Y0160504D02*
X0065824Y0160504D01*
X0065225Y0161103D02*
X0057985Y0161103D01*
X0057992Y0161701D02*
X0064627Y0161701D01*
X0064028Y0162300D02*
X0057998Y0162300D01*
X0058004Y0162898D02*
X0063430Y0162898D01*
X0063368Y0164657D02*
X0070175Y0157850D01*
X0070350Y0158025D01*
X0070350Y0158050D01*
X0072739Y0158110D02*
X0084526Y0158110D01*
X0083928Y0157511D02*
X0072739Y0157511D01*
X0072591Y0156913D02*
X0083329Y0156913D01*
X0082731Y0156314D02*
X0071993Y0156314D01*
X0071394Y0155716D02*
X0082132Y0155716D01*
X0081534Y0155117D02*
X0022900Y0155117D01*
X0022900Y0154519D02*
X0080935Y0154519D01*
X0080337Y0153920D02*
X0022900Y0153920D01*
X0022900Y0153322D02*
X0079738Y0153322D01*
X0079140Y0152723D02*
X0022900Y0152723D01*
X0020500Y0152723D02*
X0005900Y0152723D01*
X0005900Y0152125D02*
X0016852Y0152125D01*
X0016800Y0151526D02*
X0005900Y0151526D01*
X0005900Y0150928D02*
X0016800Y0150928D01*
X0016800Y0150329D02*
X0005900Y0150329D01*
X0005900Y0149731D02*
X0016800Y0149731D01*
X0016800Y0149132D02*
X0005900Y0149132D01*
X0005900Y0148534D02*
X0016800Y0148534D01*
X0016800Y0147935D02*
X0005900Y0147935D01*
X0005900Y0147337D02*
X0016800Y0147337D01*
X0016800Y0146738D02*
X0005900Y0146738D01*
X0005900Y0146140D02*
X0016800Y0146140D01*
X0016800Y0145541D02*
X0005900Y0145541D01*
X0005900Y0144943D02*
X0016800Y0144943D01*
X0016800Y0144344D02*
X0005900Y0144344D01*
X0005900Y0143746D02*
X0016800Y0143746D01*
X0016980Y0143147D02*
X0005900Y0143147D01*
X0005900Y0142549D02*
X0076386Y0142549D01*
X0076386Y0141950D02*
X0005900Y0141950D01*
X0005900Y0141352D02*
X0076386Y0141352D01*
X0076393Y0140753D02*
X0005900Y0140753D01*
X0005900Y0140155D02*
X0076992Y0140155D01*
X0077590Y0139556D02*
X0005900Y0139556D01*
X0005900Y0138958D02*
X0098764Y0138958D01*
X0098165Y0139556D02*
X0079960Y0139556D01*
X0080558Y0140155D02*
X0098111Y0140155D01*
X0098111Y0139610D02*
X0099510Y0138211D01*
X0101490Y0138211D01*
X0102679Y0139400D01*
X0133321Y0139400D01*
X0134410Y0138311D01*
X0136390Y0138311D01*
X0137789Y0139710D01*
X0137789Y0141564D01*
X0140694Y0138659D01*
X0134026Y0131990D01*
X0132945Y0130909D01*
X0132761Y0131093D01*
X0125716Y0131093D01*
X0125189Y0130566D01*
X0125189Y0125500D01*
X0087954Y0125500D01*
X0086765Y0126689D01*
X0084785Y0126689D01*
X0083386Y0125290D01*
X0083386Y0123310D01*
X0084785Y0121911D01*
X0086467Y0121911D01*
X0097042Y0111336D01*
X0096022Y0111336D01*
X0095495Y0110809D01*
X0095495Y0103925D01*
X0033139Y0103925D01*
X0033139Y0104215D01*
X0031740Y0105614D01*
X0029760Y0105614D01*
X0028361Y0104215D01*
X0028361Y0102235D01*
X0029760Y0100836D01*
X0031740Y0100836D01*
X0032429Y0101525D01*
X0053303Y0101525D01*
X0047492Y0095714D01*
X0045810Y0095714D01*
X0044411Y0094315D01*
X0044411Y0092335D01*
X0045810Y0090936D01*
X0047790Y0090936D01*
X0049189Y0092335D01*
X0049189Y0094017D01*
X0055097Y0099925D01*
X0095634Y0099925D01*
X0095495Y0099786D01*
X0095495Y0097775D01*
X0086451Y0097775D01*
X0086179Y0098432D01*
X0085257Y0099354D01*
X0084052Y0099853D01*
X0082748Y0099853D01*
X0081543Y0099354D01*
X0080621Y0098432D01*
X0080122Y0097227D01*
X0080122Y0095923D01*
X0080621Y0094718D01*
X0081543Y0093796D01*
X0082748Y0093297D01*
X0084052Y0093297D01*
X0085257Y0093796D01*
X0086179Y0094718D01*
X0086451Y0095375D01*
X0095495Y0095375D01*
X0095495Y0092741D01*
X0096022Y0092214D01*
X0103854Y0092214D01*
X0104381Y0092741D01*
X0104381Y0095063D01*
X0111640Y0095063D01*
X0117561Y0089142D01*
X0117561Y0087460D01*
X0118960Y0086061D01*
X0120940Y0086061D01*
X0122339Y0087460D01*
X0122339Y0089440D01*
X0120940Y0090839D01*
X0119258Y0090839D01*
X0112634Y0097463D01*
X0104381Y0097463D01*
X0104381Y0099786D01*
X0104242Y0099925D01*
X0104828Y0099925D01*
X0107103Y0097650D01*
X0161671Y0097650D01*
X0162860Y0096461D01*
X0163708Y0096461D01*
X0163509Y0096262D01*
X0161114Y0096262D01*
X0160587Y0095735D01*
X0160587Y0087115D01*
X0161114Y0086588D01*
X0163437Y0086588D01*
X0163437Y0084666D01*
X0164861Y0083242D01*
X0164861Y0081560D01*
X0166260Y0080161D01*
X0168240Y0080161D01*
X0169429Y0081350D01*
X0189013Y0081350D01*
X0189013Y0077816D01*
X0189540Y0077289D01*
X0198160Y0077289D01*
X0198687Y0077816D01*
X0198687Y0080569D01*
X0198766Y0080569D01*
X0199469Y0081272D01*
X0209658Y0091461D01*
X0211340Y0091461D01*
X0212739Y0092860D01*
X0212739Y0094840D01*
X0211340Y0096239D01*
X0209360Y0096239D01*
X0207961Y0094840D01*
X0207961Y0093158D01*
X0198687Y0083884D01*
X0198687Y0084861D01*
X0198160Y0085388D01*
X0189540Y0085388D01*
X0189013Y0084861D01*
X0189013Y0083750D01*
X0169429Y0083750D01*
X0168240Y0084939D01*
X0166558Y0084939D01*
X0165837Y0085660D01*
X0165837Y0086588D01*
X0168159Y0086588D01*
X0168686Y0087115D01*
X0168686Y0095735D01*
X0168159Y0096262D01*
X0166903Y0096262D01*
X0167839Y0097198D01*
X0167839Y0100502D01*
X0163416Y0104925D01*
X0162713Y0105628D01*
X0158146Y0105628D01*
X0151863Y0111911D01*
X0153537Y0111911D01*
X0154461Y0112835D01*
X0155535Y0111761D01*
X0157515Y0111761D01*
X0158914Y0113160D01*
X0158914Y0114842D01*
X0160354Y0116282D01*
X0164609Y0116282D01*
X0165136Y0116809D01*
X0165136Y0124641D01*
X0164609Y0125168D01*
X0157564Y0125168D01*
X0157037Y0124641D01*
X0157037Y0116809D01*
X0157262Y0116584D01*
X0157217Y0116539D01*
X0155535Y0116539D01*
X0154611Y0115615D01*
X0153765Y0116461D01*
X0154113Y0116809D01*
X0154113Y0124641D01*
X0153586Y0125168D01*
X0146742Y0125168D01*
X0145911Y0125999D01*
X0145911Y0131229D01*
X0145208Y0131932D01*
X0145150Y0131990D01*
X0144447Y0132693D01*
X0138123Y0132693D01*
X0142680Y0137250D01*
X0143097Y0137250D01*
X0143800Y0137953D01*
X0143800Y0138947D01*
X0129736Y0153011D01*
X0129736Y0154196D01*
X0130925Y0155385D01*
X0130925Y0157365D01*
X0129526Y0158764D01*
X0127546Y0158764D01*
X0126147Y0157365D01*
X0126147Y0155385D01*
X0127336Y0154196D01*
X0127336Y0152017D01*
X0128039Y0151314D01*
X0136264Y0143089D01*
X0134410Y0143089D01*
X0133121Y0141800D01*
X0102679Y0141800D01*
X0101490Y0142989D01*
X0099510Y0142989D01*
X0098111Y0141590D01*
X0098111Y0139610D01*
X0098111Y0140753D02*
X0081157Y0140753D01*
X0081164Y0141352D02*
X0098111Y0141352D01*
X0098472Y0141950D02*
X0081164Y0141950D01*
X0081164Y0142549D02*
X0099070Y0142549D01*
X0101161Y0143485D02*
X0101161Y0145465D01*
X0102560Y0146864D01*
X0103504Y0146864D01*
X0108713Y0152073D01*
X0108713Y0158736D01*
X0109240Y0159263D01*
X0117860Y0159263D01*
X0118387Y0158736D01*
X0118387Y0151691D01*
X0117860Y0151164D01*
X0111197Y0151164D01*
X0105719Y0145685D01*
X0105939Y0145465D01*
X0105939Y0143485D01*
X0104540Y0142086D01*
X0102560Y0142086D01*
X0101161Y0143485D01*
X0101161Y0143746D02*
X0080158Y0143746D01*
X0079975Y0144344D02*
X0101161Y0144344D01*
X0101161Y0144943D02*
X0079975Y0144943D01*
X0079975Y0145541D02*
X0086730Y0145541D01*
X0087085Y0145186D02*
X0089065Y0145186D01*
X0090464Y0146585D01*
X0090464Y0148565D01*
X0089931Y0149097D01*
X0090897Y0150064D01*
X0097560Y0150064D01*
X0098087Y0150591D01*
X0098087Y0157636D01*
X0097560Y0158163D01*
X0088940Y0158163D01*
X0088413Y0157636D01*
X0088413Y0150973D01*
X0087404Y0149964D01*
X0087085Y0149964D01*
X0085686Y0148565D01*
X0085686Y0146585D01*
X0087085Y0145186D01*
X0086132Y0146140D02*
X0079975Y0146140D01*
X0079975Y0146738D02*
X0085686Y0146738D01*
X0085686Y0147337D02*
X0079975Y0147337D01*
X0079975Y0147935D02*
X0085686Y0147935D01*
X0085686Y0148534D02*
X0079975Y0148534D01*
X0079975Y0149132D02*
X0086254Y0149132D01*
X0086852Y0149731D02*
X0079975Y0149731D01*
X0080140Y0150329D02*
X0087769Y0150329D01*
X0088368Y0150928D02*
X0080738Y0150928D01*
X0081337Y0151526D02*
X0088413Y0151526D01*
X0088413Y0152125D02*
X0081935Y0152125D01*
X0082534Y0152723D02*
X0088413Y0152723D01*
X0088413Y0153322D02*
X0083132Y0153322D01*
X0083731Y0153920D02*
X0088413Y0153920D01*
X0088413Y0154519D02*
X0084329Y0154519D01*
X0084928Y0155117D02*
X0088413Y0155117D01*
X0088413Y0155716D02*
X0085526Y0155716D01*
X0086125Y0156314D02*
X0088413Y0156314D01*
X0088413Y0156913D02*
X0086723Y0156913D01*
X0087322Y0157511D02*
X0088413Y0157511D01*
X0088887Y0158110D02*
X0087920Y0158110D01*
X0088519Y0158708D02*
X0108713Y0158708D01*
X0108713Y0158110D02*
X0097613Y0158110D01*
X0098087Y0157511D02*
X0108713Y0157511D01*
X0108713Y0156913D02*
X0098087Y0156913D01*
X0098087Y0156314D02*
X0108713Y0156314D01*
X0108713Y0155716D02*
X0098087Y0155716D01*
X0098087Y0155117D02*
X0108713Y0155117D01*
X0108713Y0154519D02*
X0098087Y0154519D01*
X0098087Y0153920D02*
X0108713Y0153920D01*
X0108713Y0153322D02*
X0098087Y0153322D01*
X0098087Y0152723D02*
X0108713Y0152723D01*
X0108713Y0152125D02*
X0098087Y0152125D01*
X0098087Y0151526D02*
X0108166Y0151526D01*
X0107568Y0150928D02*
X0098087Y0150928D01*
X0097826Y0150329D02*
X0106969Y0150329D01*
X0106371Y0149731D02*
X0090565Y0149731D01*
X0089966Y0149132D02*
X0105772Y0149132D01*
X0105174Y0148534D02*
X0090464Y0148534D01*
X0090464Y0147935D02*
X0104575Y0147935D01*
X0103977Y0147337D02*
X0090464Y0147337D01*
X0090464Y0146738D02*
X0102435Y0146738D01*
X0101836Y0146140D02*
X0090018Y0146140D01*
X0089420Y0145541D02*
X0101238Y0145541D01*
X0103550Y0145213D02*
X0103550Y0144475D01*
X0103550Y0145213D02*
X0113550Y0155213D01*
X0118387Y0155117D02*
X0126415Y0155117D01*
X0126147Y0155716D02*
X0118387Y0155716D01*
X0118387Y0156314D02*
X0126147Y0156314D01*
X0126147Y0156913D02*
X0118387Y0156913D01*
X0118387Y0157511D02*
X0126294Y0157511D01*
X0126892Y0158110D02*
X0118387Y0158110D01*
X0118387Y0158708D02*
X0127491Y0158708D01*
X0129581Y0158708D02*
X0266136Y0158708D01*
X0266136Y0158110D02*
X0130180Y0158110D01*
X0130778Y0157511D02*
X0266136Y0157511D01*
X0266136Y0156913D02*
X0130925Y0156913D01*
X0130925Y0156314D02*
X0266181Y0156314D01*
X0265582Y0155716D02*
X0130925Y0155716D01*
X0130657Y0155117D02*
X0264984Y0155117D01*
X0264385Y0154519D02*
X0130058Y0154519D01*
X0129736Y0153920D02*
X0263787Y0153920D01*
X0263188Y0153322D02*
X0129736Y0153322D01*
X0130024Y0152723D02*
X0262590Y0152723D01*
X0261991Y0152125D02*
X0130622Y0152125D01*
X0131221Y0151526D02*
X0261392Y0151526D01*
X0260794Y0150928D02*
X0131819Y0150928D01*
X0132418Y0150329D02*
X0260195Y0150329D01*
X0259597Y0149731D02*
X0133016Y0149731D01*
X0133615Y0149132D02*
X0258998Y0149132D01*
X0258400Y0148534D02*
X0134213Y0148534D01*
X0134812Y0147935D02*
X0257801Y0147935D01*
X0257203Y0147337D02*
X0135410Y0147337D01*
X0136009Y0146738D02*
X0256604Y0146738D01*
X0256006Y0146140D02*
X0136607Y0146140D01*
X0137206Y0145541D02*
X0255407Y0145541D01*
X0254809Y0144943D02*
X0137804Y0144943D01*
X0138403Y0144344D02*
X0254210Y0144344D01*
X0253612Y0143746D02*
X0139001Y0143746D01*
X0139600Y0143147D02*
X0253013Y0143147D01*
X0252415Y0142549D02*
X0140198Y0142549D01*
X0140797Y0141950D02*
X0251816Y0141950D01*
X0251218Y0141352D02*
X0141395Y0141352D01*
X0141994Y0140753D02*
X0250619Y0140753D01*
X0250021Y0140155D02*
X0142592Y0140155D01*
X0143191Y0139556D02*
X0161478Y0139556D01*
X0162060Y0140139D02*
X0160661Y0138740D01*
X0160661Y0136760D01*
X0162060Y0135361D01*
X0163742Y0135361D01*
X0164178Y0134925D01*
X0179150Y0134925D01*
X0179150Y0109039D01*
X0178410Y0109039D01*
X0177011Y0107640D01*
X0177011Y0105660D01*
X0178410Y0104261D01*
X0180390Y0104261D01*
X0181789Y0105660D01*
X0181789Y0107640D01*
X0181550Y0107879D01*
X0181550Y0136622D01*
X0180847Y0137325D01*
X0165439Y0137325D01*
X0165439Y0138740D01*
X0164040Y0140139D01*
X0162060Y0140139D01*
X0160879Y0138958D02*
X0143789Y0138958D01*
X0143800Y0138359D02*
X0160661Y0138359D01*
X0160661Y0137761D02*
X0143608Y0137761D01*
X0142592Y0137162D02*
X0160661Y0137162D01*
X0160858Y0136564D02*
X0141993Y0136564D01*
X0141395Y0135965D02*
X0161456Y0135965D01*
X0162055Y0135367D02*
X0140796Y0135367D01*
X0140198Y0134768D02*
X0179150Y0134768D01*
X0179150Y0134170D02*
X0139599Y0134170D01*
X0139001Y0133571D02*
X0161467Y0133571D01*
X0161535Y0133639D02*
X0160136Y0132240D01*
X0160136Y0130260D01*
X0161535Y0128861D01*
X0163515Y0128861D01*
X0164704Y0130050D01*
X0169796Y0130050D01*
X0170660Y0129186D01*
X0172640Y0129186D01*
X0174039Y0130585D01*
X0174039Y0132565D01*
X0172640Y0133964D01*
X0170660Y0133964D01*
X0169261Y0132565D01*
X0169261Y0132450D01*
X0164704Y0132450D01*
X0163515Y0133639D01*
X0161535Y0133639D01*
X0160869Y0132972D02*
X0138402Y0132972D01*
X0136804Y0134768D02*
X0026600Y0134768D01*
X0026600Y0134895D02*
X0026600Y0132946D01*
X0025854Y0131145D01*
X0024476Y0129766D01*
X0022675Y0129020D01*
X0020725Y0129020D01*
X0018924Y0129766D01*
X0017546Y0131145D01*
X0016800Y0132946D01*
X0016800Y0134895D01*
X0017546Y0136696D01*
X0018924Y0138074D01*
X0020725Y0138820D01*
X0022675Y0138820D01*
X0024476Y0138074D01*
X0025854Y0136696D01*
X0026600Y0134895D01*
X0026405Y0135367D02*
X0137402Y0135367D01*
X0138001Y0135965D02*
X0026157Y0135965D01*
X0025909Y0136564D02*
X0138599Y0136564D01*
X0139198Y0137162D02*
X0025388Y0137162D01*
X0024790Y0137761D02*
X0139796Y0137761D01*
X0140395Y0138359D02*
X0136438Y0138359D01*
X0137036Y0138958D02*
X0140395Y0138958D01*
X0139797Y0139556D02*
X0137635Y0139556D01*
X0137789Y0140155D02*
X0139198Y0140155D01*
X0138600Y0140753D02*
X0137789Y0140753D01*
X0137789Y0141352D02*
X0138001Y0141352D01*
X0136206Y0143147D02*
X0105601Y0143147D01*
X0105939Y0143746D02*
X0135607Y0143746D01*
X0135009Y0144344D02*
X0105939Y0144344D01*
X0105939Y0144943D02*
X0134410Y0144943D01*
X0133812Y0145541D02*
X0105862Y0145541D01*
X0106174Y0146140D02*
X0133213Y0146140D01*
X0132615Y0146738D02*
X0106772Y0146738D01*
X0107371Y0147337D02*
X0132016Y0147337D01*
X0131418Y0147935D02*
X0107969Y0147935D01*
X0108568Y0148534D02*
X0130819Y0148534D01*
X0130221Y0149132D02*
X0109166Y0149132D01*
X0109765Y0149731D02*
X0129622Y0149731D01*
X0129024Y0150329D02*
X0110363Y0150329D01*
X0110962Y0150928D02*
X0128425Y0150928D01*
X0127827Y0151526D02*
X0118223Y0151526D01*
X0118387Y0152125D02*
X0127336Y0152125D01*
X0127336Y0152723D02*
X0118387Y0152723D01*
X0118387Y0153322D02*
X0127336Y0153322D01*
X0127336Y0153920D02*
X0118387Y0153920D01*
X0118387Y0154519D02*
X0127014Y0154519D01*
X0128536Y0156375D02*
X0128536Y0152514D01*
X0142600Y0138450D01*
X0142183Y0138450D01*
X0135226Y0131493D01*
X0143950Y0131493D01*
X0144711Y0130732D01*
X0144711Y0125502D01*
X0150063Y0120150D01*
X0150063Y0117737D01*
X0153500Y0114300D01*
X0152547Y0114300D01*
X0154249Y0112623D02*
X0154673Y0112623D01*
X0155272Y0112025D02*
X0153650Y0112025D01*
X0152946Y0110828D02*
X0179150Y0110828D01*
X0179150Y0111426D02*
X0152348Y0111426D01*
X0153545Y0110229D02*
X0179150Y0110229D01*
X0179150Y0109631D02*
X0154143Y0109631D01*
X0154742Y0109032D02*
X0178404Y0109032D01*
X0177805Y0108434D02*
X0155340Y0108434D01*
X0155939Y0107835D02*
X0177206Y0107835D01*
X0177011Y0107237D02*
X0156537Y0107237D01*
X0157136Y0106638D02*
X0177011Y0106638D01*
X0177011Y0106039D02*
X0157734Y0106039D01*
X0157649Y0104428D02*
X0162216Y0104428D01*
X0166639Y0100005D01*
X0166639Y0097695D01*
X0164637Y0095693D01*
X0164637Y0091425D01*
X0164637Y0085163D01*
X0167250Y0082550D01*
X0192638Y0082550D01*
X0193419Y0081769D01*
X0198269Y0081769D01*
X0210350Y0093850D01*
X0212152Y0092274D02*
X0213163Y0092274D01*
X0212739Y0092872D02*
X0213762Y0092872D01*
X0214361Y0093471D02*
X0212739Y0093471D01*
X0212739Y0094069D02*
X0214959Y0094069D01*
X0215558Y0094668D02*
X0212739Y0094668D01*
X0212312Y0095266D02*
X0216156Y0095266D01*
X0216755Y0095865D02*
X0211714Y0095865D01*
X0208986Y0095865D02*
X0198687Y0095865D01*
X0198687Y0095884D02*
X0198160Y0096411D01*
X0189540Y0096411D01*
X0189013Y0095884D01*
X0189013Y0088839D01*
X0189540Y0088312D01*
X0198160Y0088312D01*
X0198687Y0088839D01*
X0198687Y0091225D01*
X0200521Y0091225D01*
X0201710Y0090036D01*
X0203690Y0090036D01*
X0205089Y0091435D01*
X0205089Y0093415D01*
X0203690Y0094814D01*
X0201710Y0094814D01*
X0200521Y0093625D01*
X0198687Y0093625D01*
X0198687Y0095884D01*
X0198687Y0095266D02*
X0208388Y0095266D01*
X0207961Y0094668D02*
X0203836Y0094668D01*
X0204434Y0094069D02*
X0207961Y0094069D01*
X0207961Y0093471D02*
X0205033Y0093471D01*
X0205089Y0092872D02*
X0207675Y0092872D01*
X0207077Y0092274D02*
X0205089Y0092274D01*
X0205089Y0091675D02*
X0206478Y0091675D01*
X0205880Y0091077D02*
X0204730Y0091077D01*
X0205281Y0090478D02*
X0204132Y0090478D01*
X0204683Y0089880D02*
X0198687Y0089880D01*
X0198687Y0090478D02*
X0201268Y0090478D01*
X0200670Y0091077D02*
X0198687Y0091077D01*
X0198687Y0089281D02*
X0204084Y0089281D01*
X0203486Y0088683D02*
X0198530Y0088683D01*
X0201092Y0086289D02*
X0165837Y0086289D01*
X0165837Y0085690D02*
X0200493Y0085690D01*
X0199895Y0085092D02*
X0198456Y0085092D01*
X0198687Y0084493D02*
X0199296Y0084493D01*
X0198698Y0083895D02*
X0198687Y0083895D01*
X0200296Y0082099D02*
X0208550Y0082099D01*
X0208550Y0081501D02*
X0199698Y0081501D01*
X0199099Y0080902D02*
X0208550Y0080902D01*
X0208550Y0080303D02*
X0198687Y0080303D01*
X0198687Y0079705D02*
X0208550Y0079705D01*
X0208550Y0079106D02*
X0198687Y0079106D01*
X0198687Y0078508D02*
X0208550Y0078508D01*
X0208550Y0077909D02*
X0198687Y0077909D01*
X0198182Y0077311D02*
X0208550Y0077311D01*
X0208550Y0076712D02*
X0136043Y0076712D01*
X0136043Y0076114D02*
X0168523Y0076114D01*
X0168823Y0076414D02*
X0168120Y0075711D01*
X0161734Y0069325D01*
X0151604Y0069325D01*
X0150415Y0070514D01*
X0148435Y0070514D01*
X0147036Y0069115D01*
X0147036Y0067135D01*
X0148435Y0065736D01*
X0150415Y0065736D01*
X0151604Y0066925D01*
X0162728Y0066925D01*
X0169817Y0074014D01*
X0181808Y0074014D01*
X0182144Y0073678D01*
X0182847Y0072975D01*
X0210247Y0072975D01*
X0210950Y0073678D01*
X0210950Y0086666D01*
X0222422Y0098139D01*
X0227128Y0098139D01*
X0228888Y0096378D01*
X0229591Y0095675D01*
X0231021Y0095675D01*
X0232210Y0094486D01*
X0234190Y0094486D01*
X0235589Y0095885D01*
X0235589Y0097865D01*
X0234190Y0099264D01*
X0232210Y0099264D01*
X0231021Y0098075D01*
X0230585Y0098075D01*
X0229612Y0099048D01*
X0229612Y0105711D01*
X0229085Y0106238D01*
X0220465Y0106238D01*
X0219938Y0105711D01*
X0219938Y0099048D01*
X0208550Y0087660D01*
X0208550Y0075375D01*
X0183841Y0075375D01*
X0183505Y0075711D01*
X0182802Y0076414D01*
X0168823Y0076414D01*
X0167924Y0075515D02*
X0135718Y0075515D01*
X0136043Y0077311D02*
X0189518Y0077311D01*
X0189013Y0077909D02*
X0136043Y0077909D01*
X0136043Y0080902D02*
X0144605Y0080902D01*
X0145203Y0081501D02*
X0136043Y0081501D01*
X0136043Y0082099D02*
X0145802Y0082099D01*
X0146400Y0082698D02*
X0136043Y0082698D01*
X0135633Y0083296D02*
X0146961Y0083296D01*
X0146961Y0083895D02*
X0005900Y0083895D01*
X0005900Y0084493D02*
X0081452Y0084493D01*
X0081543Y0084402D02*
X0080621Y0085324D01*
X0080122Y0086529D01*
X0080122Y0087833D01*
X0080621Y0089038D01*
X0081543Y0089960D01*
X0082748Y0090459D01*
X0084052Y0090459D01*
X0085257Y0089960D01*
X0086179Y0089038D01*
X0086678Y0087833D01*
X0086678Y0086529D01*
X0086179Y0085324D01*
X0085257Y0084402D01*
X0084052Y0083903D01*
X0082748Y0083903D01*
X0081543Y0084402D01*
X0080854Y0085092D02*
X0005900Y0085092D01*
X0005900Y0085690D02*
X0080470Y0085690D01*
X0080222Y0086289D02*
X0005900Y0086289D01*
X0005900Y0086887D02*
X0080122Y0086887D01*
X0080122Y0087486D02*
X0005900Y0087486D01*
X0005900Y0088084D02*
X0080226Y0088084D01*
X0080474Y0088683D02*
X0005900Y0088683D01*
X0005900Y0089281D02*
X0080864Y0089281D01*
X0081463Y0089880D02*
X0005900Y0089880D01*
X0005900Y0090478D02*
X0116225Y0090478D01*
X0116823Y0089880D02*
X0085337Y0089880D01*
X0085936Y0089281D02*
X0117422Y0089281D01*
X0117561Y0088683D02*
X0086326Y0088683D01*
X0086574Y0088084D02*
X0117561Y0088084D01*
X0117561Y0087486D02*
X0086678Y0087486D01*
X0086678Y0086887D02*
X0118134Y0086887D01*
X0118733Y0086289D02*
X0086578Y0086289D01*
X0086330Y0085690D02*
X0147712Y0085690D01*
X0148310Y0086289D02*
X0121167Y0086289D01*
X0121766Y0086887D02*
X0127157Y0086887D01*
X0127157Y0086864D02*
X0127684Y0086337D01*
X0135516Y0086337D01*
X0136043Y0086864D01*
X0136043Y0088353D01*
X0136561Y0087836D01*
X0138540Y0087836D01*
X0139939Y0089235D01*
X0139939Y0091214D01*
X0138540Y0092614D01*
X0136561Y0092614D01*
X0136043Y0092096D01*
X0136043Y0093909D01*
X0135516Y0094436D01*
X0127684Y0094436D01*
X0127157Y0093909D01*
X0127157Y0086864D01*
X0127157Y0087486D02*
X0122339Y0087486D01*
X0122339Y0088084D02*
X0127157Y0088084D01*
X0127157Y0088683D02*
X0122339Y0088683D01*
X0122339Y0089281D02*
X0127157Y0089281D01*
X0127157Y0089880D02*
X0121899Y0089880D01*
X0121300Y0090478D02*
X0127157Y0090478D01*
X0127157Y0091077D02*
X0119020Y0091077D01*
X0118422Y0091675D02*
X0127157Y0091675D01*
X0127157Y0092274D02*
X0117823Y0092274D01*
X0117225Y0092872D02*
X0127157Y0092872D01*
X0127157Y0093471D02*
X0116626Y0093471D01*
X0116028Y0094069D02*
X0127317Y0094069D01*
X0131600Y0090387D02*
X0131762Y0090225D01*
X0137550Y0090225D01*
X0139387Y0088683D02*
X0149564Y0088683D01*
X0149564Y0089281D02*
X0139939Y0089281D01*
X0139939Y0089880D02*
X0149564Y0089880D01*
X0149564Y0090478D02*
X0139939Y0090478D01*
X0139939Y0091077D02*
X0149564Y0091077D01*
X0149564Y0091675D02*
X0139478Y0091675D01*
X0138880Y0092274D02*
X0149564Y0092274D01*
X0149564Y0092872D02*
X0136043Y0092872D01*
X0136043Y0092274D02*
X0136221Y0092274D01*
X0136043Y0093471D02*
X0149564Y0093471D01*
X0149564Y0094069D02*
X0135883Y0094069D01*
X0136043Y0088084D02*
X0136312Y0088084D01*
X0136043Y0087486D02*
X0149564Y0087486D01*
X0149564Y0088084D02*
X0138788Y0088084D01*
X0136043Y0086887D02*
X0149792Y0086887D01*
X0150390Y0086289D02*
X0152650Y0086289D01*
X0152650Y0085690D02*
X0150988Y0085690D01*
X0151587Y0085092D02*
X0152650Y0085092D01*
X0152650Y0084493D02*
X0151739Y0084493D01*
X0151739Y0083895D02*
X0152116Y0083895D01*
X0151461Y0082099D02*
X0150878Y0082099D01*
X0151461Y0081501D02*
X0148598Y0081501D01*
X0147999Y0080902D02*
X0151819Y0080902D01*
X0152418Y0080303D02*
X0147401Y0080303D01*
X0146802Y0079705D02*
X0189013Y0079705D01*
X0189013Y0080303D02*
X0168382Y0080303D01*
X0168981Y0080902D02*
X0189013Y0080902D01*
X0189013Y0079106D02*
X0146204Y0079106D01*
X0145605Y0078508D02*
X0189013Y0078508D01*
X0193419Y0081769D02*
X0193850Y0081338D01*
X0189013Y0083895D02*
X0169284Y0083895D01*
X0168685Y0084493D02*
X0189013Y0084493D01*
X0189244Y0085092D02*
X0166405Y0085092D01*
X0164807Y0083296D02*
X0156182Y0083296D01*
X0156239Y0082698D02*
X0164861Y0082698D01*
X0164861Y0082099D02*
X0156239Y0082099D01*
X0156239Y0081501D02*
X0164921Y0081501D01*
X0165519Y0080902D02*
X0155881Y0080902D01*
X0155282Y0080303D02*
X0166118Y0080303D01*
X0164208Y0083895D02*
X0155584Y0083895D01*
X0155050Y0084493D02*
X0163610Y0084493D01*
X0163437Y0085092D02*
X0155050Y0085092D01*
X0155050Y0085690D02*
X0163437Y0085690D01*
X0163437Y0086289D02*
X0155050Y0086289D01*
X0157435Y0086887D02*
X0160815Y0086887D01*
X0160587Y0087486D02*
X0157663Y0087486D01*
X0157663Y0088084D02*
X0160587Y0088084D01*
X0160587Y0088683D02*
X0157663Y0088683D01*
X0157663Y0089281D02*
X0160587Y0089281D01*
X0160587Y0089880D02*
X0157663Y0089880D01*
X0157663Y0090478D02*
X0160587Y0090478D01*
X0160587Y0091077D02*
X0157663Y0091077D01*
X0157663Y0091675D02*
X0160587Y0091675D01*
X0160587Y0092274D02*
X0157663Y0092274D01*
X0157663Y0092872D02*
X0160587Y0092872D01*
X0160587Y0093471D02*
X0157663Y0093471D01*
X0157663Y0094069D02*
X0160587Y0094069D01*
X0160587Y0094668D02*
X0157663Y0094668D01*
X0157663Y0095266D02*
X0160587Y0095266D01*
X0160717Y0095865D02*
X0157533Y0095865D01*
X0158660Y0100050D02*
X0108097Y0100050D01*
X0107708Y0100439D01*
X0158271Y0100439D01*
X0158660Y0100050D01*
X0158656Y0100054D02*
X0108093Y0100054D01*
X0107600Y0098850D02*
X0105325Y0101125D01*
X0054600Y0101125D01*
X0046800Y0093325D01*
X0048529Y0091675D02*
X0115028Y0091675D01*
X0115626Y0091077D02*
X0047930Y0091077D01*
X0049127Y0092274D02*
X0095962Y0092274D01*
X0095495Y0092872D02*
X0049189Y0092872D01*
X0049189Y0093471D02*
X0082329Y0093471D01*
X0081270Y0094069D02*
X0049241Y0094069D01*
X0049840Y0094668D02*
X0080672Y0094668D01*
X0080394Y0095266D02*
X0050438Y0095266D01*
X0051037Y0095865D02*
X0080146Y0095865D01*
X0080122Y0096463D02*
X0051635Y0096463D01*
X0052234Y0097062D02*
X0080122Y0097062D01*
X0080302Y0097660D02*
X0052832Y0097660D01*
X0053431Y0098259D02*
X0080549Y0098259D01*
X0081047Y0098857D02*
X0054029Y0098857D01*
X0054628Y0099456D02*
X0081789Y0099456D01*
X0085011Y0099456D02*
X0095495Y0099456D01*
X0095495Y0098857D02*
X0085753Y0098857D01*
X0086251Y0098259D02*
X0095495Y0098259D01*
X0099626Y0096575D02*
X0099938Y0096263D01*
X0112137Y0096263D01*
X0119950Y0088450D01*
X0114429Y0092274D02*
X0103914Y0092274D01*
X0104381Y0092872D02*
X0113831Y0092872D01*
X0113232Y0093471D02*
X0104381Y0093471D01*
X0104381Y0094069D02*
X0112634Y0094069D01*
X0112035Y0094668D02*
X0104381Y0094668D01*
X0104381Y0097660D02*
X0107093Y0097660D01*
X0106494Y0098259D02*
X0104381Y0098259D01*
X0104381Y0098857D02*
X0105896Y0098857D01*
X0105297Y0099456D02*
X0104381Y0099456D01*
X0107600Y0098850D02*
X0163850Y0098850D01*
X0162260Y0097062D02*
X0113035Y0097062D01*
X0113634Y0096463D02*
X0162858Y0096463D01*
X0167105Y0096463D02*
X0217353Y0096463D01*
X0217952Y0097062D02*
X0167703Y0097062D01*
X0167839Y0097660D02*
X0218550Y0097660D01*
X0219149Y0098259D02*
X0208187Y0098259D01*
X0207965Y0098036D02*
X0209364Y0099435D01*
X0209364Y0101415D01*
X0207965Y0102814D01*
X0205985Y0102814D01*
X0204796Y0101625D01*
X0198879Y0101625D01*
X0197690Y0102814D01*
X0195710Y0102814D01*
X0194311Y0101415D01*
X0194311Y0099435D01*
X0195710Y0098036D01*
X0197690Y0098036D01*
X0198879Y0099225D01*
X0204796Y0099225D01*
X0205985Y0098036D01*
X0207965Y0098036D01*
X0208786Y0098857D02*
X0219747Y0098857D01*
X0219938Y0099456D02*
X0209364Y0099456D01*
X0209364Y0100054D02*
X0219938Y0100054D01*
X0219938Y0100653D02*
X0209364Y0100653D01*
X0209364Y0101251D02*
X0219938Y0101251D01*
X0219938Y0101850D02*
X0208929Y0101850D01*
X0208330Y0102448D02*
X0219938Y0102448D01*
X0219938Y0103047D02*
X0165294Y0103047D01*
X0164696Y0103645D02*
X0219938Y0103645D01*
X0219938Y0104244D02*
X0164097Y0104244D01*
X0163499Y0104842D02*
X0177829Y0104842D01*
X0177230Y0105441D02*
X0162900Y0105441D01*
X0162839Y0102108D02*
X0162839Y0101217D01*
X0162860Y0101239D01*
X0163708Y0101239D01*
X0162839Y0102108D01*
X0162839Y0101850D02*
X0163097Y0101850D01*
X0162839Y0101251D02*
X0163696Y0101251D01*
X0165893Y0102448D02*
X0195345Y0102448D01*
X0194746Y0101850D02*
X0166491Y0101850D01*
X0167090Y0101251D02*
X0194311Y0101251D01*
X0194311Y0100653D02*
X0167688Y0100653D01*
X0167839Y0100054D02*
X0194311Y0100054D01*
X0194311Y0099456D02*
X0167839Y0099456D01*
X0167839Y0098857D02*
X0194889Y0098857D01*
X0195488Y0098259D02*
X0167839Y0098259D01*
X0168556Y0095865D02*
X0189013Y0095865D01*
X0189013Y0095266D02*
X0168686Y0095266D01*
X0168686Y0094668D02*
X0189013Y0094668D01*
X0189013Y0094069D02*
X0168686Y0094069D01*
X0168686Y0093471D02*
X0189013Y0093471D01*
X0189013Y0092872D02*
X0168686Y0092872D01*
X0168686Y0092274D02*
X0189013Y0092274D01*
X0189013Y0091675D02*
X0168686Y0091675D01*
X0168686Y0091077D02*
X0189013Y0091077D01*
X0189013Y0090478D02*
X0168686Y0090478D01*
X0168686Y0089880D02*
X0189013Y0089880D01*
X0189013Y0089281D02*
X0168686Y0089281D01*
X0168686Y0088683D02*
X0189170Y0088683D01*
X0193850Y0092362D02*
X0193913Y0092425D01*
X0202700Y0092425D01*
X0200966Y0094069D02*
X0198687Y0094069D01*
X0198687Y0094668D02*
X0201564Y0094668D01*
X0197912Y0098259D02*
X0205763Y0098259D01*
X0205164Y0098857D02*
X0198511Y0098857D01*
X0196700Y0100425D02*
X0206975Y0100425D01*
X0205021Y0101850D02*
X0198654Y0101850D01*
X0198055Y0102448D02*
X0205620Y0102448D01*
X0219938Y0104842D02*
X0180971Y0104842D01*
X0181569Y0105441D02*
X0219938Y0105441D01*
X0220267Y0106039D02*
X0181789Y0106039D01*
X0181789Y0106638D02*
X0266129Y0106638D01*
X0266130Y0107237D02*
X0181789Y0107237D01*
X0181593Y0107835D02*
X0266131Y0107835D01*
X0266133Y0108434D02*
X0181550Y0108434D01*
X0181550Y0109032D02*
X0266134Y0109032D01*
X0266135Y0109594D02*
X0266122Y0102549D01*
X0266649Y0102021D01*
X0268575Y0102018D01*
X0268575Y0100529D01*
X0267386Y0099340D01*
X0267386Y0097360D01*
X0268785Y0095961D01*
X0270765Y0095961D01*
X0272164Y0097360D01*
X0272164Y0099340D01*
X0270975Y0100529D01*
X0270975Y0102014D01*
X0275268Y0102006D01*
X0275796Y0102532D01*
X0275809Y0109577D01*
X0275282Y0110105D01*
X0266663Y0110120D01*
X0266135Y0109594D01*
X0266171Y0109631D02*
X0229553Y0109631D01*
X0229612Y0110229D02*
X0285275Y0110229D01*
X0285275Y0109631D02*
X0275755Y0109631D01*
X0275808Y0109032D02*
X0285275Y0109032D01*
X0285275Y0108434D02*
X0275807Y0108434D01*
X0275805Y0107835D02*
X0285275Y0107835D01*
X0285275Y0107237D02*
X0275804Y0107237D01*
X0275803Y0106638D02*
X0285275Y0106638D01*
X0285275Y0106039D02*
X0275802Y0106039D01*
X0275801Y0105441D02*
X0285275Y0105441D01*
X0285275Y0104842D02*
X0275800Y0104842D01*
X0275799Y0104244D02*
X0285275Y0104244D01*
X0285275Y0103645D02*
X0275798Y0103645D01*
X0275797Y0103047D02*
X0285275Y0103047D01*
X0285275Y0102448D02*
X0275712Y0102448D01*
X0272048Y0099456D02*
X0285275Y0099456D01*
X0285275Y0100054D02*
X0271449Y0100054D01*
X0270975Y0100653D02*
X0285275Y0100653D01*
X0285275Y0101251D02*
X0270975Y0101251D01*
X0270975Y0101850D02*
X0285275Y0101850D01*
X0287675Y0101850D02*
X0288039Y0101850D01*
X0288039Y0102448D02*
X0287675Y0102448D01*
X0287675Y0103047D02*
X0288039Y0103047D01*
X0288039Y0103645D02*
X0287675Y0103645D01*
X0287675Y0104244D02*
X0288039Y0104244D01*
X0288039Y0104842D02*
X0287675Y0104842D01*
X0287675Y0105441D02*
X0288039Y0105441D01*
X0288039Y0106039D02*
X0287675Y0106039D01*
X0287675Y0106638D02*
X0288039Y0106638D01*
X0288039Y0107237D02*
X0287675Y0107237D01*
X0287675Y0107835D02*
X0288039Y0107835D01*
X0288039Y0108434D02*
X0287675Y0108434D01*
X0287675Y0109032D02*
X0288039Y0109032D01*
X0288039Y0109631D02*
X0287675Y0109631D01*
X0287675Y0110229D02*
X0288039Y0110229D01*
X0288039Y0110828D02*
X0287675Y0110828D01*
X0287675Y0111426D02*
X0288039Y0111426D01*
X0288039Y0112025D02*
X0287675Y0112025D01*
X0287675Y0112623D02*
X0288039Y0112623D01*
X0288039Y0113222D02*
X0287675Y0113222D01*
X0287675Y0113820D02*
X0288039Y0113820D01*
X0288039Y0114419D02*
X0287675Y0114419D01*
X0287675Y0115017D02*
X0288039Y0115017D01*
X0288039Y0115616D02*
X0287675Y0115616D01*
X0287675Y0116214D02*
X0288039Y0116214D01*
X0288039Y0116813D02*
X0287675Y0116813D01*
X0287675Y0117411D02*
X0288039Y0117411D01*
X0288039Y0118010D02*
X0287675Y0118010D01*
X0287675Y0118608D02*
X0288039Y0118608D01*
X0288039Y0119207D02*
X0287675Y0119207D01*
X0287675Y0119805D02*
X0288039Y0119805D01*
X0288039Y0120404D02*
X0287675Y0120404D01*
X0287675Y0121002D02*
X0288039Y0121002D01*
X0288039Y0121601D02*
X0287675Y0121601D01*
X0287675Y0122199D02*
X0288039Y0122199D01*
X0288039Y0122798D02*
X0287675Y0122798D01*
X0287675Y0123396D02*
X0288039Y0123396D01*
X0288039Y0123995D02*
X0287675Y0123995D01*
X0287675Y0124593D02*
X0288039Y0124593D01*
X0288039Y0125192D02*
X0287675Y0125192D01*
X0287675Y0125790D02*
X0288039Y0125790D01*
X0288039Y0126389D02*
X0287675Y0126389D01*
X0287675Y0126987D02*
X0288039Y0126987D01*
X0288039Y0127586D02*
X0287675Y0127586D01*
X0287675Y0128184D02*
X0288039Y0128184D01*
X0288039Y0128783D02*
X0287675Y0128783D01*
X0287675Y0129381D02*
X0288039Y0129381D01*
X0288039Y0129980D02*
X0287675Y0129980D01*
X0287675Y0130578D02*
X0288039Y0130578D01*
X0288039Y0131177D02*
X0287675Y0131177D01*
X0287675Y0131775D02*
X0288039Y0131775D01*
X0288039Y0132374D02*
X0287675Y0132374D01*
X0287675Y0132972D02*
X0288039Y0132972D01*
X0288039Y0133571D02*
X0287675Y0133571D01*
X0287675Y0134170D02*
X0288039Y0134170D01*
X0288039Y0134768D02*
X0287675Y0134768D01*
X0287675Y0135367D02*
X0288039Y0135367D01*
X0288039Y0135965D02*
X0287675Y0135965D01*
X0287675Y0136564D02*
X0288039Y0136564D01*
X0288039Y0137162D02*
X0287675Y0137162D01*
X0287675Y0137761D02*
X0288039Y0137761D01*
X0288039Y0138359D02*
X0287675Y0138359D01*
X0287675Y0138958D02*
X0288039Y0138958D01*
X0288039Y0139556D02*
X0287675Y0139556D01*
X0287675Y0140155D02*
X0288039Y0140155D01*
X0288039Y0140753D02*
X0287219Y0140753D01*
X0286620Y0141352D02*
X0288039Y0141352D01*
X0288039Y0141950D02*
X0286022Y0141950D01*
X0285423Y0142549D02*
X0288039Y0142549D01*
X0288039Y0143147D02*
X0284825Y0143147D01*
X0284226Y0143746D02*
X0288039Y0143746D01*
X0288039Y0144344D02*
X0283628Y0144344D01*
X0283029Y0144943D02*
X0288039Y0144943D01*
X0288039Y0145541D02*
X0282431Y0145541D01*
X0281832Y0146140D02*
X0288039Y0146140D01*
X0288039Y0146738D02*
X0281234Y0146738D01*
X0280635Y0147337D02*
X0288039Y0147337D01*
X0288039Y0147935D02*
X0280037Y0147935D01*
X0279438Y0148534D02*
X0288039Y0148534D01*
X0288039Y0149132D02*
X0278840Y0149132D01*
X0278241Y0149731D02*
X0288039Y0149731D01*
X0288039Y0150329D02*
X0277643Y0150329D01*
X0277044Y0150928D02*
X0288039Y0150928D01*
X0288039Y0151526D02*
X0276446Y0151526D01*
X0275847Y0152125D02*
X0288039Y0152125D01*
X0288039Y0152723D02*
X0275249Y0152723D01*
X0274650Y0153322D02*
X0288039Y0153322D01*
X0288039Y0153920D02*
X0274052Y0153920D01*
X0273453Y0154519D02*
X0288039Y0154519D01*
X0288039Y0155117D02*
X0272855Y0155117D01*
X0272256Y0155716D02*
X0288039Y0155716D01*
X0288039Y0156314D02*
X0284408Y0156314D01*
X0285783Y0156913D02*
X0288039Y0156913D01*
X0288039Y0157511D02*
X0286820Y0157511D01*
X0287718Y0158110D02*
X0288039Y0158110D01*
X0277247Y0156314D02*
X0271658Y0156314D01*
X0267302Y0159905D02*
X0089716Y0159905D01*
X0089117Y0159307D02*
X0266703Y0159307D01*
X0271776Y0160504D02*
X0090314Y0160504D01*
X0088117Y0161701D02*
X0068021Y0161701D01*
X0068620Y0161103D02*
X0087519Y0161103D01*
X0086920Y0160504D02*
X0069218Y0160504D01*
X0067422Y0162300D02*
X0088413Y0162300D01*
X0088413Y0162898D02*
X0066824Y0162898D01*
X0066225Y0163497D02*
X0088413Y0163497D01*
X0088413Y0164095D02*
X0065627Y0164095D01*
X0065028Y0164694D02*
X0088413Y0164694D01*
X0088413Y0165292D02*
X0064430Y0165292D01*
X0063368Y0164657D02*
X0052595Y0164657D01*
X0058036Y0165891D02*
X0088413Y0165891D01*
X0088413Y0166489D02*
X0058042Y0166489D01*
X0058048Y0167088D02*
X0088413Y0167088D01*
X0088413Y0167686D02*
X0058054Y0167686D01*
X0058061Y0168285D02*
X0088413Y0168285D01*
X0088637Y0168883D02*
X0058067Y0168883D01*
X0058073Y0169482D02*
X0108713Y0169482D01*
X0108713Y0168883D02*
X0097863Y0168883D01*
X0098087Y0168285D02*
X0108713Y0168285D01*
X0108713Y0167686D02*
X0098087Y0167686D01*
X0098087Y0167088D02*
X0108713Y0167088D01*
X0108713Y0166489D02*
X0098087Y0166489D01*
X0098087Y0163497D02*
X0108713Y0163497D01*
X0108713Y0162898D02*
X0098087Y0162898D01*
X0098087Y0162300D02*
X0109128Y0162300D01*
X0112450Y0165137D02*
X0093250Y0165137D01*
X0078775Y0150662D01*
X0078775Y0141750D01*
X0076794Y0143147D02*
X0026420Y0143147D01*
X0026600Y0143746D02*
X0077392Y0143746D01*
X0077575Y0144344D02*
X0026600Y0144344D01*
X0026600Y0144943D02*
X0077575Y0144943D01*
X0077575Y0145541D02*
X0026600Y0145541D01*
X0026600Y0146140D02*
X0077575Y0146140D01*
X0077575Y0146738D02*
X0026600Y0146738D01*
X0026600Y0147337D02*
X0077575Y0147337D01*
X0077575Y0147935D02*
X0026600Y0147935D01*
X0026600Y0148534D02*
X0077575Y0148534D01*
X0077575Y0149132D02*
X0026600Y0149132D01*
X0026600Y0149731D02*
X0077575Y0149731D01*
X0077575Y0150329D02*
X0026600Y0150329D01*
X0026600Y0150928D02*
X0077575Y0150928D01*
X0077942Y0151526D02*
X0026600Y0151526D01*
X0026548Y0152125D02*
X0078541Y0152125D01*
X0069306Y0155716D02*
X0022900Y0155716D01*
X0023274Y0156314D02*
X0068707Y0156314D01*
X0072739Y0158708D02*
X0085125Y0158708D01*
X0085723Y0159307D02*
X0072472Y0159307D01*
X0071873Y0159905D02*
X0086322Y0159905D01*
X0093250Y0154113D02*
X0088075Y0148938D01*
X0088075Y0147575D01*
X0080756Y0143147D02*
X0101499Y0143147D01*
X0101930Y0142549D02*
X0102098Y0142549D01*
X0102528Y0141950D02*
X0133272Y0141950D01*
X0133870Y0142549D02*
X0105002Y0142549D01*
X0100500Y0140600D02*
X0135300Y0140600D01*
X0135400Y0140700D01*
X0133764Y0138958D02*
X0102236Y0138958D01*
X0101638Y0138359D02*
X0134362Y0138359D01*
X0136205Y0134170D02*
X0026600Y0134170D01*
X0026600Y0133571D02*
X0135607Y0133571D01*
X0135008Y0132972D02*
X0026600Y0132972D01*
X0026363Y0132374D02*
X0134409Y0132374D01*
X0133811Y0131775D02*
X0026115Y0131775D01*
X0025867Y0131177D02*
X0133212Y0131177D01*
X0135226Y0131493D02*
X0130383Y0126650D01*
X0129238Y0126650D01*
X0126888Y0124300D01*
X0085775Y0124300D01*
X0099938Y0110137D01*
X0099938Y0107287D01*
X0095495Y0107237D02*
X0005900Y0107237D01*
X0005900Y0107835D02*
X0095495Y0107835D01*
X0095495Y0108434D02*
X0005900Y0108434D01*
X0005900Y0109032D02*
X0095495Y0109032D01*
X0095495Y0109631D02*
X0005900Y0109631D01*
X0005900Y0110229D02*
X0095495Y0110229D01*
X0095513Y0110828D02*
X0005900Y0110828D01*
X0005900Y0111426D02*
X0096952Y0111426D01*
X0096353Y0112025D02*
X0005900Y0112025D01*
X0005900Y0112623D02*
X0095755Y0112623D01*
X0095156Y0113222D02*
X0005900Y0113222D01*
X0005900Y0113820D02*
X0094558Y0113820D01*
X0093959Y0114419D02*
X0005900Y0114419D01*
X0005900Y0115017D02*
X0093361Y0115017D01*
X0092762Y0115616D02*
X0005900Y0115616D01*
X0005900Y0116214D02*
X0092164Y0116214D01*
X0091565Y0116813D02*
X0005900Y0116813D01*
X0005900Y0117411D02*
X0090967Y0117411D01*
X0090368Y0118010D02*
X0005900Y0118010D01*
X0005900Y0118608D02*
X0089770Y0118608D01*
X0089171Y0119207D02*
X0005900Y0119207D01*
X0005900Y0119805D02*
X0088573Y0119805D01*
X0087974Y0120404D02*
X0005900Y0120404D01*
X0005900Y0121002D02*
X0087376Y0121002D01*
X0086777Y0121601D02*
X0005900Y0121601D01*
X0005900Y0122199D02*
X0084497Y0122199D01*
X0083899Y0122798D02*
X0005900Y0122798D01*
X0005900Y0123396D02*
X0083386Y0123396D01*
X0083386Y0123995D02*
X0005900Y0123995D01*
X0005900Y0124593D02*
X0083386Y0124593D01*
X0083386Y0125192D02*
X0005900Y0125192D01*
X0005900Y0125790D02*
X0083887Y0125790D01*
X0084485Y0126389D02*
X0005900Y0126389D01*
X0005900Y0126987D02*
X0125189Y0126987D01*
X0125189Y0126389D02*
X0087065Y0126389D01*
X0087663Y0125790D02*
X0125189Y0125790D01*
X0125189Y0127586D02*
X0005900Y0127586D01*
X0005900Y0128184D02*
X0125189Y0128184D01*
X0125189Y0128783D02*
X0005900Y0128783D01*
X0005900Y0129381D02*
X0019854Y0129381D01*
X0018711Y0129980D02*
X0005900Y0129980D01*
X0005900Y0130578D02*
X0018112Y0130578D01*
X0017533Y0131177D02*
X0005900Y0131177D01*
X0005900Y0131775D02*
X0017285Y0131775D01*
X0017037Y0132374D02*
X0005900Y0132374D01*
X0005900Y0132972D02*
X0016800Y0132972D01*
X0016800Y0133571D02*
X0005900Y0133571D01*
X0005900Y0134170D02*
X0016800Y0134170D01*
X0016800Y0134768D02*
X0005900Y0134768D01*
X0005900Y0135367D02*
X0016995Y0135367D01*
X0017243Y0135965D02*
X0005900Y0135965D01*
X0005900Y0136564D02*
X0017491Y0136564D01*
X0018012Y0137162D02*
X0005900Y0137162D01*
X0005900Y0137761D02*
X0018610Y0137761D01*
X0019611Y0138359D02*
X0005900Y0138359D01*
X0023789Y0138359D02*
X0099362Y0138359D01*
X0088672Y0123100D02*
X0125189Y0123100D01*
X0125189Y0122734D01*
X0125716Y0122207D01*
X0132761Y0122207D01*
X0133288Y0122734D01*
X0133288Y0125410D01*
X0133887Y0124811D01*
X0135569Y0124811D01*
X0136212Y0124168D01*
X0136212Y0122734D01*
X0136739Y0122207D01*
X0138173Y0122207D01*
X0156449Y0103931D01*
X0157152Y0103228D01*
X0158660Y0103228D01*
X0158271Y0102839D01*
X0107571Y0102839D01*
X0107188Y0103222D01*
X0106485Y0103925D01*
X0104381Y0103925D01*
X0104381Y0110809D01*
X0103854Y0111336D01*
X0100436Y0111336D01*
X0100435Y0111337D01*
X0088672Y0123100D01*
X0088974Y0122798D02*
X0125189Y0122798D01*
X0125189Y0129381D02*
X0023546Y0129381D01*
X0024689Y0129980D02*
X0125189Y0129980D01*
X0125201Y0130578D02*
X0025288Y0130578D01*
X0021700Y0147700D02*
X0021700Y0156437D01*
X0030155Y0164892D01*
X0024725Y0164694D02*
X0023885Y0164694D01*
X0024025Y0165292D02*
X0024731Y0165292D01*
X0024738Y0165891D02*
X0024025Y0165891D01*
X0024025Y0166489D02*
X0024744Y0166489D01*
X0024750Y0167088D02*
X0024025Y0167088D01*
X0024025Y0167686D02*
X0024757Y0167686D01*
X0024763Y0168285D02*
X0023973Y0168285D01*
X0023813Y0168883D02*
X0024769Y0168883D01*
X0024775Y0169482D02*
X0023653Y0169482D01*
X0023492Y0170080D02*
X0024782Y0170080D01*
X0024788Y0170679D02*
X0023332Y0170679D01*
X0023045Y0171277D02*
X0024794Y0171277D01*
X0025058Y0171876D02*
X0022699Y0171876D01*
X0022353Y0172474D02*
X0271585Y0172474D01*
X0271240Y0171876D02*
X0128753Y0171876D01*
X0129351Y0171277D02*
X0270894Y0171277D01*
X0270607Y0170679D02*
X0129950Y0170679D01*
X0130014Y0170080D02*
X0270446Y0170080D01*
X0270286Y0169482D02*
X0130014Y0169482D01*
X0130014Y0168883D02*
X0270126Y0168883D01*
X0269965Y0168285D02*
X0129663Y0168285D01*
X0129065Y0167686D02*
X0269913Y0167686D01*
X0269913Y0167088D02*
X0126785Y0167088D01*
X0126186Y0166489D02*
X0269913Y0166489D01*
X0269913Y0165891D02*
X0125588Y0165891D01*
X0124989Y0165292D02*
X0269913Y0165292D01*
X0271931Y0173073D02*
X0022008Y0173073D01*
X0021529Y0173671D02*
X0272410Y0173671D01*
X0249422Y0139556D02*
X0164622Y0139556D01*
X0165221Y0138958D02*
X0248824Y0138958D01*
X0248225Y0138359D02*
X0165439Y0138359D01*
X0165439Y0137761D02*
X0247627Y0137761D01*
X0247028Y0137162D02*
X0181010Y0137162D01*
X0181550Y0136564D02*
X0246430Y0136564D01*
X0245831Y0135965D02*
X0181550Y0135965D01*
X0181550Y0135367D02*
X0245233Y0135367D01*
X0244634Y0134768D02*
X0181550Y0134768D01*
X0181550Y0134170D02*
X0244036Y0134170D01*
X0243437Y0133571D02*
X0181550Y0133571D01*
X0181550Y0132972D02*
X0242839Y0132972D01*
X0242240Y0132374D02*
X0181550Y0132374D01*
X0181550Y0131775D02*
X0241642Y0131775D01*
X0241043Y0131177D02*
X0181550Y0131177D01*
X0181550Y0130578D02*
X0240445Y0130578D01*
X0239846Y0129980D02*
X0181550Y0129980D01*
X0181550Y0129381D02*
X0239248Y0129381D01*
X0238649Y0128783D02*
X0181550Y0128783D01*
X0181550Y0128184D02*
X0238051Y0128184D01*
X0237452Y0127586D02*
X0181550Y0127586D01*
X0181550Y0126987D02*
X0236854Y0126987D01*
X0236255Y0126389D02*
X0181550Y0126389D01*
X0181550Y0125790D02*
X0235657Y0125790D01*
X0235058Y0125192D02*
X0181550Y0125192D01*
X0181550Y0124593D02*
X0234459Y0124593D01*
X0233861Y0123995D02*
X0181550Y0123995D01*
X0181550Y0123396D02*
X0233262Y0123396D01*
X0232664Y0122798D02*
X0181550Y0122798D01*
X0181550Y0122199D02*
X0232065Y0122199D01*
X0231467Y0121601D02*
X0181550Y0121601D01*
X0181550Y0121002D02*
X0230868Y0121002D01*
X0230270Y0120404D02*
X0181550Y0120404D01*
X0181550Y0119805D02*
X0229671Y0119805D01*
X0229073Y0119207D02*
X0181550Y0119207D01*
X0181550Y0118608D02*
X0228474Y0118608D01*
X0227876Y0118010D02*
X0181550Y0118010D01*
X0181550Y0117411D02*
X0227277Y0117411D01*
X0229612Y0112623D02*
X0285275Y0112623D01*
X0285275Y0112025D02*
X0229612Y0112025D01*
X0229612Y0111426D02*
X0285275Y0111426D01*
X0285275Y0110828D02*
X0229612Y0110828D01*
X0229283Y0106039D02*
X0266128Y0106039D01*
X0266127Y0105441D02*
X0229612Y0105441D01*
X0229612Y0104842D02*
X0266126Y0104842D01*
X0266125Y0104244D02*
X0229612Y0104244D01*
X0229612Y0103645D02*
X0266124Y0103645D01*
X0266123Y0103047D02*
X0229612Y0103047D01*
X0229612Y0102448D02*
X0266223Y0102448D01*
X0268575Y0101850D02*
X0229612Y0101850D01*
X0229612Y0101251D02*
X0268575Y0101251D01*
X0268575Y0100653D02*
X0229612Y0100653D01*
X0229612Y0100054D02*
X0268101Y0100054D01*
X0267502Y0099456D02*
X0229612Y0099456D01*
X0229803Y0098857D02*
X0231804Y0098857D01*
X0231205Y0098259D02*
X0230401Y0098259D01*
X0230088Y0096875D02*
X0233200Y0096875D01*
X0234970Y0095266D02*
X0285275Y0095266D01*
X0285275Y0094668D02*
X0234371Y0094668D01*
X0235568Y0095865D02*
X0285275Y0095865D01*
X0285275Y0096463D02*
X0271267Y0096463D01*
X0271865Y0097062D02*
X0285275Y0097062D01*
X0285275Y0097660D02*
X0272164Y0097660D01*
X0272164Y0098259D02*
X0285275Y0098259D01*
X0285275Y0098857D02*
X0272164Y0098857D01*
X0269775Y0098350D02*
X0269775Y0104873D01*
X0270965Y0106063D01*
X0275480Y0113222D02*
X0285275Y0113222D01*
X0285275Y0113820D02*
X0275816Y0113820D01*
X0275817Y0114419D02*
X0285275Y0114419D01*
X0285275Y0115017D02*
X0275818Y0115017D01*
X0275819Y0115616D02*
X0285275Y0115616D01*
X0285275Y0116214D02*
X0275820Y0116214D01*
X0287675Y0101251D02*
X0288039Y0101251D01*
X0288039Y0100653D02*
X0287675Y0100653D01*
X0287675Y0100054D02*
X0288039Y0100054D01*
X0288039Y0099456D02*
X0287675Y0099456D01*
X0287675Y0098857D02*
X0288039Y0098857D01*
X0288039Y0098259D02*
X0287675Y0098259D01*
X0287675Y0097660D02*
X0288039Y0097660D01*
X0288039Y0097062D02*
X0287675Y0097062D01*
X0287675Y0096463D02*
X0288039Y0096463D01*
X0288039Y0095865D02*
X0287675Y0095865D01*
X0287675Y0095266D02*
X0288039Y0095266D01*
X0288039Y0094668D02*
X0287675Y0094668D01*
X0287675Y0094069D02*
X0288039Y0094069D01*
X0288039Y0093471D02*
X0287675Y0093471D01*
X0287675Y0092872D02*
X0288039Y0092872D01*
X0288039Y0092274D02*
X0287675Y0092274D01*
X0287675Y0091675D02*
X0288039Y0091675D01*
X0288039Y0091077D02*
X0287675Y0091077D01*
X0287675Y0090478D02*
X0288039Y0090478D01*
X0288039Y0089880D02*
X0287675Y0089880D01*
X0287675Y0089281D02*
X0288039Y0089281D01*
X0288039Y0088683D02*
X0287675Y0088683D01*
X0287675Y0088084D02*
X0288039Y0088084D01*
X0288039Y0087486D02*
X0287675Y0087486D01*
X0287675Y0086887D02*
X0288039Y0086887D01*
X0288039Y0086289D02*
X0287675Y0086289D01*
X0287675Y0085690D02*
X0288039Y0085690D01*
X0288039Y0085092D02*
X0287675Y0085092D01*
X0287675Y0084493D02*
X0288039Y0084493D01*
X0288039Y0083895D02*
X0287675Y0083895D01*
X0287675Y0083296D02*
X0288039Y0083296D01*
X0288039Y0082698D02*
X0287675Y0082698D01*
X0287675Y0082099D02*
X0288039Y0082099D01*
X0288039Y0081501D02*
X0287675Y0081501D01*
X0287675Y0080902D02*
X0288039Y0080902D01*
X0288039Y0080303D02*
X0287675Y0080303D01*
X0287675Y0079705D02*
X0288039Y0079705D01*
X0288039Y0079106D02*
X0287675Y0079106D01*
X0287675Y0078508D02*
X0288039Y0078508D01*
X0288039Y0077909D02*
X0287675Y0077909D01*
X0287675Y0077311D02*
X0288039Y0077311D01*
X0288039Y0076712D02*
X0287675Y0076712D01*
X0287675Y0076114D02*
X0288039Y0076114D01*
X0288039Y0075515D02*
X0287675Y0075515D01*
X0287675Y0074917D02*
X0288039Y0074917D01*
X0288039Y0074318D02*
X0287675Y0074318D01*
X0287675Y0073720D02*
X0288039Y0073720D01*
X0288039Y0073121D02*
X0287675Y0073121D01*
X0287675Y0072523D02*
X0288039Y0072523D01*
X0288039Y0071924D02*
X0287675Y0071924D01*
X0287675Y0071326D02*
X0288039Y0071326D01*
X0288039Y0070727D02*
X0287675Y0070727D01*
X0287675Y0070129D02*
X0288039Y0070129D01*
X0288039Y0069530D02*
X0287675Y0069530D01*
X0287675Y0068932D02*
X0288039Y0068932D01*
X0288039Y0068333D02*
X0287675Y0068333D01*
X0287675Y0067735D02*
X0288039Y0067735D01*
X0288039Y0067136D02*
X0287675Y0067136D01*
X0287675Y0066538D02*
X0288039Y0066538D01*
X0288039Y0065939D02*
X0287675Y0065939D01*
X0287675Y0065341D02*
X0288039Y0065341D01*
X0288039Y0064742D02*
X0287675Y0064742D01*
X0287675Y0064144D02*
X0288039Y0064144D01*
X0288039Y0063545D02*
X0287675Y0063545D01*
X0287675Y0062947D02*
X0288039Y0062947D01*
X0288039Y0062348D02*
X0287675Y0062348D01*
X0287675Y0061750D02*
X0288039Y0061750D01*
X0288039Y0061151D02*
X0287675Y0061151D01*
X0287675Y0060553D02*
X0288039Y0060553D01*
X0288039Y0059954D02*
X0287675Y0059954D01*
X0287675Y0059356D02*
X0288039Y0059356D01*
X0288039Y0058757D02*
X0287675Y0058757D01*
X0287675Y0058159D02*
X0288039Y0058159D01*
X0288039Y0057560D02*
X0287675Y0057560D01*
X0287675Y0056962D02*
X0288039Y0056962D01*
X0288039Y0056363D02*
X0287675Y0056363D01*
X0287675Y0055765D02*
X0288039Y0055765D01*
X0288039Y0055166D02*
X0287675Y0055166D01*
X0287675Y0054568D02*
X0288039Y0054568D01*
X0288039Y0053969D02*
X0287675Y0053969D01*
X0287675Y0053370D02*
X0288039Y0053370D01*
X0288039Y0052772D02*
X0287675Y0052772D01*
X0287675Y0052173D02*
X0288039Y0052173D01*
X0288039Y0051575D02*
X0287675Y0051575D01*
X0287675Y0050976D02*
X0288039Y0050976D01*
X0288039Y0050378D02*
X0287675Y0050378D01*
X0287675Y0049779D02*
X0288039Y0049779D01*
X0288039Y0049181D02*
X0287675Y0049181D01*
X0287675Y0048582D02*
X0288039Y0048582D01*
X0288039Y0047984D02*
X0287675Y0047984D01*
X0287675Y0047385D02*
X0288039Y0047385D01*
X0288039Y0046787D02*
X0287675Y0046787D01*
X0287675Y0046188D02*
X0288039Y0046188D01*
X0288039Y0045590D02*
X0287675Y0045590D01*
X0287675Y0044991D02*
X0288039Y0044991D01*
X0288039Y0044393D02*
X0287675Y0044393D01*
X0287675Y0043794D02*
X0288039Y0043794D01*
X0288039Y0043196D02*
X0287675Y0043196D01*
X0287675Y0042597D02*
X0288039Y0042597D01*
X0288039Y0041999D02*
X0287675Y0041999D01*
X0287675Y0041400D02*
X0288039Y0041400D01*
X0288039Y0040802D02*
X0287675Y0040802D01*
X0287675Y0040203D02*
X0288039Y0040203D01*
X0288039Y0039605D02*
X0287675Y0039605D01*
X0287675Y0039006D02*
X0288039Y0039006D01*
X0288039Y0038408D02*
X0287675Y0038408D01*
X0287675Y0037809D02*
X0288039Y0037809D01*
X0288039Y0037211D02*
X0287675Y0037211D01*
X0287675Y0036612D02*
X0288039Y0036612D01*
X0288039Y0036014D02*
X0287675Y0036014D01*
X0287675Y0035415D02*
X0288039Y0035415D01*
X0288039Y0034817D02*
X0287675Y0034817D01*
X0287675Y0034218D02*
X0288039Y0034218D01*
X0288039Y0033620D02*
X0287675Y0033620D01*
X0287675Y0033021D02*
X0288039Y0033021D01*
X0288039Y0032423D02*
X0287675Y0032423D01*
X0287596Y0031824D02*
X0288039Y0031824D01*
X0288039Y0031226D02*
X0286998Y0031226D01*
X0286399Y0030627D02*
X0288039Y0030627D01*
X0288039Y0030029D02*
X0285801Y0030029D01*
X0285202Y0029430D02*
X0288039Y0029430D01*
X0288039Y0028832D02*
X0284604Y0028832D01*
X0284005Y0028233D02*
X0288039Y0028233D01*
X0288039Y0027634D02*
X0283407Y0027634D01*
X0282808Y0027036D02*
X0288039Y0027036D01*
X0288039Y0026437D02*
X0282210Y0026437D01*
X0281611Y0025839D02*
X0288039Y0025839D01*
X0288039Y0025240D02*
X0281012Y0025240D01*
X0280414Y0024642D02*
X0288039Y0024642D01*
X0288039Y0024043D02*
X0279815Y0024043D01*
X0279217Y0023445D02*
X0288039Y0023445D01*
X0288039Y0022846D02*
X0278618Y0022846D01*
X0278020Y0022248D02*
X0288039Y0022248D01*
X0288039Y0021649D02*
X0277421Y0021649D01*
X0276823Y0021051D02*
X0288039Y0021051D01*
X0288039Y0020452D02*
X0276224Y0020452D01*
X0275626Y0019854D02*
X0282453Y0019854D01*
X0280398Y0019255D02*
X0275314Y0019255D01*
X0275314Y0018657D02*
X0279361Y0018657D01*
X0278324Y0018058D02*
X0275314Y0018058D01*
X0274913Y0017460D02*
X0277615Y0017460D01*
X0277017Y0016861D02*
X0274315Y0016861D01*
X0275909Y0015664D02*
X0216856Y0015664D01*
X0217454Y0016263D02*
X0276418Y0016263D01*
X0275564Y0015066D02*
X0216257Y0015066D01*
X0215659Y0014467D02*
X0275218Y0014467D01*
X0274872Y0013869D02*
X0215060Y0013869D01*
X0214461Y0013270D02*
X0274563Y0013270D01*
X0274403Y0012672D02*
X0213863Y0012672D01*
X0212230Y0012736D02*
X0206701Y0012736D01*
X0177312Y0042125D01*
X0079750Y0042125D01*
X0100263Y0062638D01*
X0100263Y0066788D01*
X0109687Y0076212D01*
X0118906Y0076212D01*
X0122057Y0079363D01*
X0131600Y0079363D01*
X0144763Y0079363D01*
X0149350Y0083950D01*
X0146961Y0084493D02*
X0085347Y0084493D01*
X0085946Y0085092D02*
X0147113Y0085092D01*
X0153850Y0082250D02*
X0153850Y0091188D01*
X0153613Y0091425D01*
X0149564Y0094668D02*
X0115429Y0094668D01*
X0114831Y0095266D02*
X0149564Y0095266D01*
X0149694Y0095865D02*
X0114232Y0095865D01*
X0107074Y0101639D02*
X0105988Y0102725D01*
X0031250Y0102725D01*
X0030750Y0103225D01*
X0032511Y0104842D02*
X0095495Y0104842D01*
X0095495Y0104244D02*
X0033110Y0104244D01*
X0031913Y0105441D02*
X0095495Y0105441D01*
X0095495Y0106039D02*
X0005900Y0106039D01*
X0005900Y0105441D02*
X0029587Y0105441D01*
X0028989Y0104842D02*
X0005900Y0104842D01*
X0005900Y0104244D02*
X0028390Y0104244D01*
X0028361Y0103645D02*
X0005900Y0103645D01*
X0005900Y0103047D02*
X0028361Y0103047D01*
X0028361Y0102448D02*
X0005900Y0102448D01*
X0005900Y0101850D02*
X0028747Y0101850D01*
X0029345Y0101251D02*
X0005900Y0101251D01*
X0005900Y0100653D02*
X0052431Y0100653D01*
X0053029Y0101251D02*
X0032155Y0101251D01*
X0044411Y0094069D02*
X0005900Y0094069D01*
X0005900Y0093471D02*
X0044411Y0093471D01*
X0044411Y0092872D02*
X0005900Y0092872D01*
X0005900Y0092274D02*
X0044473Y0092274D01*
X0045071Y0091675D02*
X0005900Y0091675D01*
X0005900Y0091077D02*
X0045670Y0091077D01*
X0044764Y0094668D02*
X0005900Y0094668D01*
X0005900Y0095266D02*
X0045363Y0095266D01*
X0047643Y0095865D02*
X0005900Y0095865D01*
X0005900Y0096463D02*
X0048241Y0096463D01*
X0048840Y0097062D02*
X0005900Y0097062D01*
X0005900Y0097660D02*
X0049438Y0097660D01*
X0050037Y0098259D02*
X0005900Y0098259D01*
X0005900Y0098857D02*
X0050635Y0098857D01*
X0051234Y0099456D02*
X0005900Y0099456D01*
X0005900Y0100054D02*
X0051832Y0100054D01*
X0083400Y0096575D02*
X0099626Y0096575D01*
X0095495Y0095266D02*
X0086406Y0095266D01*
X0086128Y0094668D02*
X0095495Y0094668D01*
X0095495Y0094069D02*
X0085530Y0094069D01*
X0084471Y0093471D02*
X0095495Y0093471D01*
X0107074Y0101639D02*
X0160450Y0101639D01*
X0158479Y0103047D02*
X0107363Y0103047D01*
X0107188Y0103222D02*
X0107188Y0103222D01*
X0106764Y0103645D02*
X0156734Y0103645D01*
X0156136Y0104244D02*
X0104381Y0104244D01*
X0104381Y0104842D02*
X0155537Y0104842D01*
X0154939Y0105441D02*
X0104381Y0105441D01*
X0104381Y0106039D02*
X0154340Y0106039D01*
X0153742Y0106638D02*
X0104381Y0106638D01*
X0104381Y0107237D02*
X0153143Y0107237D01*
X0152545Y0107835D02*
X0104381Y0107835D01*
X0104381Y0108434D02*
X0151946Y0108434D01*
X0151348Y0109032D02*
X0104381Y0109032D01*
X0104381Y0109631D02*
X0150749Y0109631D01*
X0150151Y0110229D02*
X0104381Y0110229D01*
X0104363Y0110828D02*
X0149552Y0110828D01*
X0148954Y0111426D02*
X0100346Y0111426D01*
X0099747Y0112025D02*
X0148355Y0112025D01*
X0147757Y0112623D02*
X0099149Y0112623D01*
X0098550Y0113222D02*
X0147158Y0113222D01*
X0146560Y0113820D02*
X0097952Y0113820D01*
X0097353Y0114419D02*
X0145961Y0114419D01*
X0145363Y0115017D02*
X0096755Y0115017D01*
X0096156Y0115616D02*
X0144764Y0115616D01*
X0144166Y0116214D02*
X0095558Y0116214D01*
X0094959Y0116813D02*
X0143567Y0116813D01*
X0142969Y0117411D02*
X0094361Y0117411D01*
X0093762Y0118010D02*
X0142370Y0118010D01*
X0141771Y0118608D02*
X0093164Y0118608D01*
X0092565Y0119207D02*
X0141173Y0119207D01*
X0140574Y0119805D02*
X0091967Y0119805D01*
X0091368Y0120404D02*
X0139976Y0120404D01*
X0139377Y0121002D02*
X0090770Y0121002D01*
X0090171Y0121601D02*
X0138779Y0121601D01*
X0138180Y0122199D02*
X0089573Y0122199D01*
X0095495Y0106638D02*
X0005900Y0106638D01*
X0005900Y0083296D02*
X0118668Y0083296D01*
X0118069Y0082698D02*
X0005900Y0082698D01*
X0005900Y0082099D02*
X0117471Y0082099D01*
X0117286Y0081501D02*
X0104540Y0081501D01*
X0104706Y0080902D02*
X0117286Y0080902D01*
X0117286Y0080303D02*
X0104706Y0080303D01*
X0104706Y0079705D02*
X0116758Y0079705D01*
X0116159Y0079106D02*
X0104706Y0079106D01*
X0100263Y0077812D02*
X0100026Y0077575D01*
X0083400Y0077575D01*
X0086343Y0076114D02*
X0095820Y0076114D01*
X0095820Y0075515D02*
X0085976Y0075515D01*
X0085378Y0074917D02*
X0095820Y0074917D01*
X0095820Y0074318D02*
X0084104Y0074318D01*
X0082696Y0074318D02*
X0005900Y0074318D01*
X0005900Y0073720D02*
X0105498Y0073720D01*
X0106096Y0074318D02*
X0104706Y0074318D01*
X0104706Y0074917D02*
X0106695Y0074917D01*
X0107293Y0075515D02*
X0104706Y0075515D01*
X0104706Y0076114D02*
X0107892Y0076114D01*
X0109490Y0074318D02*
X0166727Y0074318D01*
X0166129Y0073720D02*
X0108892Y0073720D01*
X0108293Y0073121D02*
X0165530Y0073121D01*
X0164932Y0072523D02*
X0107695Y0072523D01*
X0107096Y0071924D02*
X0164333Y0071924D01*
X0163735Y0071326D02*
X0106498Y0071326D01*
X0105899Y0070727D02*
X0163136Y0070727D01*
X0162538Y0070129D02*
X0150800Y0070129D01*
X0151398Y0069530D02*
X0161939Y0069530D01*
X0162231Y0068125D02*
X0169320Y0075214D01*
X0182305Y0075214D01*
X0183344Y0074175D01*
X0209750Y0074175D01*
X0209750Y0087163D01*
X0224775Y0102188D01*
X0230088Y0096875D01*
X0229401Y0095865D02*
X0220149Y0095865D01*
X0220747Y0096463D02*
X0228803Y0096463D01*
X0228888Y0096378D02*
X0228888Y0096378D01*
X0228204Y0097062D02*
X0221346Y0097062D01*
X0221944Y0097660D02*
X0227606Y0097660D01*
X0231430Y0095266D02*
X0219550Y0095266D01*
X0218952Y0094668D02*
X0232029Y0094668D01*
X0235589Y0096463D02*
X0268283Y0096463D01*
X0267685Y0097062D02*
X0235589Y0097062D01*
X0235589Y0097660D02*
X0267386Y0097660D01*
X0267386Y0098259D02*
X0235195Y0098259D01*
X0234596Y0098857D02*
X0267386Y0098857D01*
X0285275Y0094069D02*
X0218353Y0094069D01*
X0217755Y0093471D02*
X0285275Y0093471D01*
X0285275Y0092872D02*
X0217156Y0092872D01*
X0216558Y0092274D02*
X0285275Y0092274D01*
X0285275Y0091675D02*
X0215959Y0091675D01*
X0215361Y0091077D02*
X0285275Y0091077D01*
X0285275Y0090478D02*
X0214762Y0090478D01*
X0214164Y0089880D02*
X0285275Y0089880D01*
X0285275Y0089281D02*
X0213565Y0089281D01*
X0212967Y0088683D02*
X0285275Y0088683D01*
X0285275Y0088084D02*
X0212368Y0088084D01*
X0211769Y0087486D02*
X0285275Y0087486D01*
X0285275Y0086887D02*
X0211171Y0086887D01*
X0210950Y0086289D02*
X0285275Y0086289D01*
X0285275Y0085690D02*
X0210950Y0085690D01*
X0210950Y0085092D02*
X0285275Y0085092D01*
X0285275Y0084493D02*
X0210950Y0084493D01*
X0210950Y0083895D02*
X0285275Y0083895D01*
X0285275Y0083296D02*
X0210950Y0083296D01*
X0210950Y0082698D02*
X0285275Y0082698D01*
X0285275Y0082099D02*
X0210950Y0082099D01*
X0210950Y0081501D02*
X0285275Y0081501D01*
X0285275Y0080902D02*
X0238127Y0080902D01*
X0237965Y0081064D02*
X0239364Y0079665D01*
X0239364Y0077685D01*
X0238175Y0076496D01*
X0238175Y0056222D01*
X0248183Y0046214D01*
X0249865Y0046214D01*
X0251264Y0044815D01*
X0251264Y0042835D01*
X0249865Y0041436D01*
X0247885Y0041436D01*
X0246486Y0042835D01*
X0246486Y0044517D01*
X0235775Y0055228D01*
X0235775Y0076496D01*
X0234586Y0077685D01*
X0234586Y0079665D01*
X0235985Y0081064D01*
X0237965Y0081064D01*
X0238725Y0080303D02*
X0285275Y0080303D01*
X0285275Y0079705D02*
X0239324Y0079705D01*
X0239364Y0079106D02*
X0285275Y0079106D01*
X0285275Y0078508D02*
X0239364Y0078508D01*
X0239364Y0077909D02*
X0285275Y0077909D01*
X0285275Y0077311D02*
X0238989Y0077311D01*
X0238391Y0076712D02*
X0285275Y0076712D01*
X0285275Y0076114D02*
X0238175Y0076114D01*
X0238175Y0075515D02*
X0285275Y0075515D01*
X0285275Y0074917D02*
X0238175Y0074917D01*
X0238175Y0074318D02*
X0285275Y0074318D01*
X0285275Y0073720D02*
X0238175Y0073720D01*
X0238175Y0073121D02*
X0285275Y0073121D01*
X0285275Y0072523D02*
X0238175Y0072523D01*
X0238175Y0071924D02*
X0285275Y0071924D01*
X0285275Y0071326D02*
X0238175Y0071326D01*
X0238175Y0070727D02*
X0285275Y0070727D01*
X0285275Y0070129D02*
X0238175Y0070129D01*
X0238175Y0069530D02*
X0285275Y0069530D01*
X0285275Y0068932D02*
X0238175Y0068932D01*
X0238175Y0068333D02*
X0285275Y0068333D01*
X0285275Y0067735D02*
X0238175Y0067735D01*
X0238175Y0067136D02*
X0285275Y0067136D01*
X0285275Y0066538D02*
X0238175Y0066538D01*
X0238175Y0065939D02*
X0285275Y0065939D01*
X0285275Y0065341D02*
X0238175Y0065341D01*
X0238175Y0064742D02*
X0285275Y0064742D01*
X0285275Y0064144D02*
X0238175Y0064144D01*
X0238175Y0063545D02*
X0285275Y0063545D01*
X0285275Y0062947D02*
X0238175Y0062947D01*
X0238175Y0062348D02*
X0285275Y0062348D01*
X0285275Y0061750D02*
X0238175Y0061750D01*
X0238175Y0061151D02*
X0285275Y0061151D01*
X0285275Y0060553D02*
X0238175Y0060553D01*
X0238175Y0059954D02*
X0285275Y0059954D01*
X0285275Y0059356D02*
X0238175Y0059356D01*
X0238175Y0058757D02*
X0285275Y0058757D01*
X0285275Y0058159D02*
X0238175Y0058159D01*
X0238175Y0057560D02*
X0285275Y0057560D01*
X0285275Y0056962D02*
X0238175Y0056962D01*
X0238175Y0056363D02*
X0285275Y0056363D01*
X0285275Y0055765D02*
X0238633Y0055765D01*
X0239231Y0055166D02*
X0285275Y0055166D01*
X0285275Y0054568D02*
X0239830Y0054568D01*
X0240428Y0053969D02*
X0285275Y0053969D01*
X0285275Y0053370D02*
X0241027Y0053370D01*
X0241625Y0052772D02*
X0285275Y0052772D01*
X0285275Y0052173D02*
X0242224Y0052173D01*
X0242822Y0051575D02*
X0285275Y0051575D01*
X0285275Y0050976D02*
X0243421Y0050976D01*
X0244019Y0050378D02*
X0285275Y0050378D01*
X0285275Y0049779D02*
X0244618Y0049779D01*
X0245216Y0049181D02*
X0285275Y0049181D01*
X0285275Y0048582D02*
X0245815Y0048582D01*
X0246413Y0047984D02*
X0285275Y0047984D01*
X0285275Y0047385D02*
X0247012Y0047385D01*
X0247610Y0046787D02*
X0285275Y0046787D01*
X0285275Y0046188D02*
X0249890Y0046188D01*
X0250489Y0045590D02*
X0285275Y0045590D01*
X0285275Y0044991D02*
X0251087Y0044991D01*
X0251264Y0044393D02*
X0285275Y0044393D01*
X0285275Y0043794D02*
X0251264Y0043794D01*
X0251264Y0043196D02*
X0285275Y0043196D01*
X0285275Y0042597D02*
X0251026Y0042597D01*
X0250427Y0041999D02*
X0285275Y0041999D01*
X0285275Y0041400D02*
X0205409Y0041400D01*
X0206007Y0040802D02*
X0285275Y0040802D01*
X0285275Y0040203D02*
X0206606Y0040203D01*
X0207204Y0039605D02*
X0285275Y0039605D01*
X0285275Y0039006D02*
X0207803Y0039006D01*
X0208401Y0038408D02*
X0285275Y0038408D01*
X0285275Y0037809D02*
X0209000Y0037809D01*
X0209598Y0037211D02*
X0285275Y0037211D01*
X0285275Y0036612D02*
X0210197Y0036612D01*
X0210795Y0036014D02*
X0285275Y0036014D01*
X0285275Y0035415D02*
X0211394Y0035415D01*
X0211992Y0034817D02*
X0285275Y0034817D01*
X0285275Y0034218D02*
X0212591Y0034218D01*
X0213189Y0033620D02*
X0285275Y0033620D01*
X0285275Y0033021D02*
X0213788Y0033021D01*
X0214386Y0032423D02*
X0284801Y0032423D01*
X0284202Y0031824D02*
X0214985Y0031824D01*
X0215583Y0031226D02*
X0283604Y0031226D01*
X0283005Y0030627D02*
X0216182Y0030627D01*
X0216780Y0030029D02*
X0282407Y0030029D01*
X0281808Y0029430D02*
X0217379Y0029430D01*
X0217977Y0028832D02*
X0281209Y0028832D01*
X0280611Y0028233D02*
X0218576Y0028233D01*
X0219174Y0027634D02*
X0280012Y0027634D01*
X0279414Y0027036D02*
X0219773Y0027036D01*
X0220371Y0026437D02*
X0278815Y0026437D01*
X0278217Y0025839D02*
X0220970Y0025839D01*
X0221568Y0025240D02*
X0277618Y0025240D01*
X0277020Y0024642D02*
X0222167Y0024642D01*
X0222765Y0024043D02*
X0276421Y0024043D01*
X0275823Y0023445D02*
X0223364Y0023445D01*
X0223962Y0022846D02*
X0275224Y0022846D01*
X0274626Y0022248D02*
X0224561Y0022248D01*
X0225159Y0021649D02*
X0274027Y0021649D01*
X0271747Y0021051D02*
X0225758Y0021051D01*
X0226356Y0020452D02*
X0271149Y0020452D01*
X0270937Y0017460D02*
X0218651Y0017460D01*
X0218053Y0016861D02*
X0271535Y0016861D01*
X0287076Y0019854D02*
X0288039Y0019854D01*
X0274292Y0006088D02*
X0021523Y0006088D01*
X0024025Y0012073D02*
X0205667Y0012073D01*
X0205068Y0012672D02*
X0024025Y0012672D01*
X0024025Y0013270D02*
X0204470Y0013270D01*
X0203871Y0013869D02*
X0024025Y0013869D01*
X0024025Y0014467D02*
X0203273Y0014467D01*
X0202674Y0015066D02*
X0023886Y0015066D01*
X0023726Y0015664D02*
X0202076Y0015664D01*
X0201477Y0016263D02*
X0023566Y0016263D01*
X0023405Y0016861D02*
X0200879Y0016861D01*
X0200280Y0017460D02*
X0023203Y0017460D01*
X0022857Y0018058D02*
X0199682Y0018058D01*
X0199083Y0018657D02*
X0022512Y0018657D01*
X0022166Y0019255D02*
X0198485Y0019255D01*
X0197886Y0019854D02*
X0021803Y0019854D01*
X0021205Y0020452D02*
X0197288Y0020452D01*
X0196689Y0021051D02*
X0020606Y0021051D01*
X0020008Y0021649D02*
X0196091Y0021649D01*
X0195492Y0022248D02*
X0019114Y0022248D01*
X0018077Y0022846D02*
X0194894Y0022846D01*
X0194295Y0023445D02*
X0016713Y0023445D01*
X0009509Y0023445D02*
X0005900Y0023445D01*
X0005900Y0024043D02*
X0193697Y0024043D01*
X0193098Y0024642D02*
X0005900Y0024642D01*
X0005900Y0025240D02*
X0192500Y0025240D01*
X0191901Y0025839D02*
X0005900Y0025839D01*
X0005900Y0026437D02*
X0191303Y0026437D01*
X0190704Y0027036D02*
X0005900Y0027036D01*
X0005900Y0027634D02*
X0190106Y0027634D01*
X0189507Y0028233D02*
X0005900Y0028233D01*
X0005900Y0028832D02*
X0188909Y0028832D01*
X0188310Y0029430D02*
X0005900Y0029430D01*
X0005900Y0030029D02*
X0187712Y0030029D01*
X0187113Y0030627D02*
X0005900Y0030627D01*
X0005900Y0031226D02*
X0186515Y0031226D01*
X0185916Y0031824D02*
X0005900Y0031824D01*
X0005900Y0032423D02*
X0185318Y0032423D01*
X0184719Y0033021D02*
X0005900Y0033021D01*
X0005900Y0033620D02*
X0184121Y0033620D01*
X0183522Y0034218D02*
X0005900Y0034218D01*
X0005900Y0034817D02*
X0182924Y0034817D01*
X0182325Y0035415D02*
X0005900Y0035415D01*
X0005900Y0036014D02*
X0181727Y0036014D01*
X0181128Y0036612D02*
X0005900Y0036612D01*
X0005900Y0037211D02*
X0180530Y0037211D01*
X0179931Y0037809D02*
X0005900Y0037809D01*
X0005900Y0038408D02*
X0179332Y0038408D01*
X0178734Y0039006D02*
X0005900Y0039006D01*
X0005900Y0039605D02*
X0178135Y0039605D01*
X0177537Y0040203D02*
X0081207Y0040203D01*
X0081805Y0040802D02*
X0176938Y0040802D01*
X0179750Y0041950D02*
X0184650Y0041950D01*
X0211075Y0015525D01*
X0208686Y0015664D02*
X0205470Y0015664D01*
X0206069Y0015066D02*
X0208686Y0015066D01*
X0208686Y0014535D02*
X0209285Y0013936D01*
X0207198Y0013936D01*
X0180384Y0040750D01*
X0184153Y0040750D01*
X0208686Y0016217D01*
X0208686Y0014535D01*
X0208754Y0014467D02*
X0206667Y0014467D01*
X0204872Y0016263D02*
X0208640Y0016263D01*
X0208042Y0016861D02*
X0204273Y0016861D01*
X0203674Y0017460D02*
X0207443Y0017460D01*
X0206845Y0018058D02*
X0203076Y0018058D01*
X0202477Y0018657D02*
X0206246Y0018657D01*
X0205648Y0019255D02*
X0201879Y0019255D01*
X0201280Y0019854D02*
X0205049Y0019854D01*
X0204451Y0020452D02*
X0200682Y0020452D01*
X0200083Y0021051D02*
X0203852Y0021051D01*
X0203254Y0021649D02*
X0199485Y0021649D01*
X0198886Y0022248D02*
X0202655Y0022248D01*
X0202057Y0022846D02*
X0198288Y0022846D01*
X0197689Y0023445D02*
X0201458Y0023445D01*
X0200860Y0024043D02*
X0197091Y0024043D01*
X0196492Y0024642D02*
X0200261Y0024642D01*
X0199662Y0025240D02*
X0195894Y0025240D01*
X0195295Y0025839D02*
X0199064Y0025839D01*
X0198465Y0026437D02*
X0194697Y0026437D01*
X0194098Y0027036D02*
X0197867Y0027036D01*
X0197268Y0027634D02*
X0193500Y0027634D01*
X0192901Y0028233D02*
X0196670Y0028233D01*
X0196071Y0028832D02*
X0192303Y0028832D01*
X0191704Y0029430D02*
X0195473Y0029430D01*
X0194874Y0030029D02*
X0191106Y0030029D01*
X0190507Y0030627D02*
X0194276Y0030627D01*
X0193677Y0031226D02*
X0189909Y0031226D01*
X0189310Y0031824D02*
X0193079Y0031824D01*
X0192480Y0032423D02*
X0188712Y0032423D01*
X0188113Y0033021D02*
X0191882Y0033021D01*
X0191283Y0033620D02*
X0187515Y0033620D01*
X0186916Y0034218D02*
X0190685Y0034218D01*
X0190086Y0034817D02*
X0186318Y0034817D01*
X0185719Y0035415D02*
X0189488Y0035415D01*
X0188889Y0036014D02*
X0185121Y0036014D01*
X0184522Y0036612D02*
X0188291Y0036612D01*
X0187692Y0037211D02*
X0183924Y0037211D01*
X0183325Y0037809D02*
X0187094Y0037809D01*
X0186495Y0038408D02*
X0182727Y0038408D01*
X0182128Y0039006D02*
X0185897Y0039006D01*
X0185298Y0039605D02*
X0181530Y0039605D01*
X0180931Y0040203D02*
X0184700Y0040203D01*
X0186298Y0041999D02*
X0201416Y0041999D01*
X0200817Y0042597D02*
X0185700Y0042597D01*
X0186897Y0041400D02*
X0202014Y0041400D01*
X0202613Y0040802D02*
X0187495Y0040802D01*
X0188094Y0040203D02*
X0203212Y0040203D01*
X0203810Y0039605D02*
X0188692Y0039605D01*
X0189291Y0039006D02*
X0204409Y0039006D01*
X0205007Y0038408D02*
X0189889Y0038408D01*
X0190488Y0037809D02*
X0205606Y0037809D01*
X0206204Y0037211D02*
X0191086Y0037211D01*
X0191685Y0036612D02*
X0206803Y0036612D01*
X0207401Y0036014D02*
X0192283Y0036014D01*
X0192882Y0035415D02*
X0208000Y0035415D01*
X0208598Y0034817D02*
X0193480Y0034817D01*
X0194079Y0034218D02*
X0209197Y0034218D01*
X0209795Y0033620D02*
X0194677Y0033620D01*
X0195276Y0033021D02*
X0210394Y0033021D01*
X0210992Y0032423D02*
X0195874Y0032423D01*
X0196473Y0031824D02*
X0211591Y0031824D01*
X0212189Y0031226D02*
X0197071Y0031226D01*
X0197670Y0030627D02*
X0212788Y0030627D01*
X0213386Y0030029D02*
X0198268Y0030029D01*
X0198867Y0029430D02*
X0213985Y0029430D01*
X0214583Y0028832D02*
X0199466Y0028832D01*
X0200064Y0028233D02*
X0215182Y0028233D01*
X0215780Y0027634D02*
X0200663Y0027634D01*
X0201261Y0027036D02*
X0216379Y0027036D01*
X0216977Y0026437D02*
X0201860Y0026437D01*
X0202458Y0025839D02*
X0217576Y0025839D01*
X0218174Y0025240D02*
X0203057Y0025240D01*
X0203655Y0024642D02*
X0218773Y0024642D01*
X0219371Y0024043D02*
X0204254Y0024043D01*
X0204852Y0023445D02*
X0219970Y0023445D01*
X0220568Y0022846D02*
X0205451Y0022846D01*
X0206049Y0022248D02*
X0221167Y0022248D01*
X0221765Y0021649D02*
X0206648Y0021649D01*
X0207246Y0021051D02*
X0222364Y0021051D01*
X0222962Y0020452D02*
X0207845Y0020452D01*
X0208443Y0019854D02*
X0217651Y0019854D01*
X0217053Y0019255D02*
X0209042Y0019255D01*
X0209640Y0018657D02*
X0216454Y0018657D01*
X0215855Y0018058D02*
X0210239Y0018058D01*
X0212519Y0017460D02*
X0215257Y0017460D01*
X0214658Y0016861D02*
X0213117Y0016861D01*
X0213464Y0016263D02*
X0214060Y0016263D01*
X0226262Y0018850D02*
X0180862Y0064250D01*
X0180862Y0070912D01*
X0180875Y0070925D01*
X0179094Y0072523D02*
X0168326Y0072523D01*
X0168924Y0073121D02*
X0179693Y0073121D01*
X0178496Y0071924D02*
X0167727Y0071924D01*
X0167129Y0071326D02*
X0178486Y0071326D01*
X0178486Y0070727D02*
X0166530Y0070727D01*
X0165932Y0070129D02*
X0178486Y0070129D01*
X0178891Y0069530D02*
X0165333Y0069530D01*
X0164735Y0068932D02*
X0179490Y0068932D01*
X0176979Y0068333D02*
X0173721Y0068333D01*
X0173888Y0068166D02*
X0173361Y0068693D01*
X0166316Y0068693D01*
X0165789Y0068166D01*
X0165789Y0060334D01*
X0166316Y0059807D01*
X0171440Y0059807D01*
X0173671Y0057577D01*
X0173671Y0055895D01*
X0175070Y0054496D01*
X0177049Y0054496D01*
X0178449Y0055895D01*
X0178449Y0057874D01*
X0177049Y0059274D01*
X0175368Y0059274D01*
X0173888Y0060753D01*
X0173888Y0068166D01*
X0173888Y0067735D02*
X0176812Y0067735D01*
X0176812Y0067136D02*
X0173888Y0067136D01*
X0173888Y0066538D02*
X0176812Y0066538D01*
X0176812Y0065939D02*
X0173888Y0065939D01*
X0173888Y0065341D02*
X0176812Y0065341D01*
X0176812Y0064742D02*
X0173888Y0064742D01*
X0173888Y0064144D02*
X0176812Y0064144D01*
X0176812Y0063545D02*
X0173888Y0063545D01*
X0173888Y0062947D02*
X0176812Y0062947D01*
X0176812Y0062348D02*
X0173888Y0062348D01*
X0173888Y0061750D02*
X0176812Y0061750D01*
X0176812Y0061151D02*
X0173888Y0061151D01*
X0174089Y0060553D02*
X0176812Y0060553D01*
X0177192Y0059954D02*
X0174687Y0059954D01*
X0175286Y0059356D02*
X0184059Y0059356D01*
X0184658Y0058757D02*
X0177566Y0058757D01*
X0178164Y0058159D02*
X0185256Y0058159D01*
X0185855Y0057560D02*
X0178449Y0057560D01*
X0178449Y0056962D02*
X0186453Y0056962D01*
X0187052Y0056363D02*
X0178449Y0056363D01*
X0178318Y0055765D02*
X0187650Y0055765D01*
X0188249Y0055166D02*
X0177720Y0055166D01*
X0177121Y0054568D02*
X0188847Y0054568D01*
X0189446Y0053969D02*
X0169428Y0053969D01*
X0168830Y0054568D02*
X0174998Y0054568D01*
X0174400Y0055166D02*
X0168231Y0055166D01*
X0167633Y0055765D02*
X0173801Y0055765D01*
X0173671Y0056363D02*
X0167090Y0056363D01*
X0166492Y0056962D02*
X0173671Y0056962D01*
X0173671Y0057560D02*
X0163296Y0057560D01*
X0163296Y0057510D02*
X0162107Y0056321D01*
X0162107Y0052875D01*
X0165793Y0049189D01*
X0167475Y0049189D01*
X0168874Y0047790D01*
X0168874Y0045810D01*
X0167475Y0044411D01*
X0165496Y0044411D01*
X0164096Y0045810D01*
X0164096Y0047492D01*
X0159707Y0051881D01*
X0159707Y0056321D01*
X0158518Y0057510D01*
X0158518Y0059490D01*
X0159918Y0060889D01*
X0161897Y0060889D01*
X0163296Y0059490D01*
X0163296Y0057510D01*
X0163558Y0056962D02*
X0162747Y0056962D01*
X0162960Y0056363D02*
X0162149Y0056363D01*
X0162107Y0055765D02*
X0162636Y0055765D01*
X0162636Y0055166D02*
X0162107Y0055166D01*
X0162107Y0054568D02*
X0162636Y0054568D01*
X0162727Y0053969D02*
X0162107Y0053969D01*
X0162107Y0053370D02*
X0163326Y0053370D01*
X0163924Y0052772D02*
X0162210Y0052772D01*
X0162809Y0052173D02*
X0167829Y0052173D01*
X0167231Y0052772D02*
X0166125Y0052772D01*
X0166650Y0055050D02*
X0179750Y0041950D01*
X0180201Y0043196D02*
X0200219Y0043196D01*
X0199620Y0043794D02*
X0179603Y0043794D01*
X0179004Y0044393D02*
X0199022Y0044393D01*
X0198423Y0044991D02*
X0178406Y0044991D01*
X0177807Y0045590D02*
X0197825Y0045590D01*
X0197226Y0046188D02*
X0177209Y0046188D01*
X0176610Y0046787D02*
X0196628Y0046787D01*
X0196029Y0047385D02*
X0176012Y0047385D01*
X0175413Y0047984D02*
X0195431Y0047984D01*
X0194832Y0048582D02*
X0174815Y0048582D01*
X0174216Y0049181D02*
X0194234Y0049181D01*
X0193635Y0049779D02*
X0173618Y0049779D01*
X0173019Y0050378D02*
X0193037Y0050378D01*
X0192438Y0050976D02*
X0172421Y0050976D01*
X0171822Y0051575D02*
X0191840Y0051575D01*
X0191241Y0052173D02*
X0171224Y0052173D01*
X0170625Y0052772D02*
X0190643Y0052772D01*
X0190044Y0053370D02*
X0170027Y0053370D01*
X0168428Y0051575D02*
X0163407Y0051575D01*
X0164006Y0050976D02*
X0169027Y0050976D01*
X0169625Y0050378D02*
X0164604Y0050378D01*
X0165203Y0049779D02*
X0170224Y0049779D01*
X0170822Y0049181D02*
X0167483Y0049181D01*
X0168081Y0048582D02*
X0171421Y0048582D01*
X0172019Y0047984D02*
X0168680Y0047984D01*
X0168874Y0047385D02*
X0172618Y0047385D01*
X0173216Y0046787D02*
X0168874Y0046787D01*
X0168874Y0046188D02*
X0173815Y0046188D01*
X0174413Y0045590D02*
X0168654Y0045590D01*
X0168055Y0044991D02*
X0175012Y0044991D01*
X0175610Y0044393D02*
X0083715Y0044393D01*
X0084313Y0044991D02*
X0164915Y0044991D01*
X0164317Y0045590D02*
X0084912Y0045590D01*
X0085510Y0046188D02*
X0164096Y0046188D01*
X0164096Y0046787D02*
X0086109Y0046787D01*
X0086707Y0047385D02*
X0164096Y0047385D01*
X0163604Y0047984D02*
X0087306Y0047984D01*
X0087904Y0048582D02*
X0163006Y0048582D01*
X0162407Y0049181D02*
X0088503Y0049181D01*
X0089101Y0049779D02*
X0161809Y0049779D01*
X0161210Y0050378D02*
X0089700Y0050378D01*
X0090298Y0050976D02*
X0160612Y0050976D01*
X0160013Y0051575D02*
X0090897Y0051575D01*
X0091495Y0052173D02*
X0159707Y0052173D01*
X0159707Y0052772D02*
X0092094Y0052772D01*
X0092693Y0053370D02*
X0159707Y0053370D01*
X0159707Y0053969D02*
X0093291Y0053969D01*
X0093890Y0054568D02*
X0159707Y0054568D01*
X0159707Y0055166D02*
X0094488Y0055166D01*
X0095087Y0055765D02*
X0159707Y0055765D01*
X0159666Y0056363D02*
X0095685Y0056363D01*
X0096284Y0056962D02*
X0159067Y0056962D01*
X0158518Y0057560D02*
X0096882Y0057560D01*
X0097481Y0058159D02*
X0158518Y0058159D01*
X0158518Y0058757D02*
X0098079Y0058757D01*
X0098678Y0059356D02*
X0158518Y0059356D01*
X0158983Y0059954D02*
X0099276Y0059954D01*
X0099875Y0060553D02*
X0159581Y0060553D01*
X0160907Y0058500D02*
X0160907Y0052378D01*
X0166485Y0046800D01*
X0176209Y0043794D02*
X0083116Y0043794D01*
X0081518Y0045590D02*
X0005900Y0045590D01*
X0005900Y0046188D02*
X0082116Y0046188D01*
X0082715Y0046787D02*
X0005900Y0046787D01*
X0005900Y0047385D02*
X0083313Y0047385D01*
X0083912Y0047984D02*
X0005900Y0047984D01*
X0005900Y0048582D02*
X0084510Y0048582D01*
X0085109Y0049181D02*
X0005900Y0049181D01*
X0005900Y0049779D02*
X0085707Y0049779D01*
X0086306Y0050378D02*
X0005900Y0050378D01*
X0005900Y0050976D02*
X0086904Y0050976D01*
X0087503Y0051575D02*
X0005900Y0051575D01*
X0005900Y0052173D02*
X0088101Y0052173D01*
X0088700Y0052772D02*
X0005900Y0052772D01*
X0005900Y0053370D02*
X0089298Y0053370D01*
X0089897Y0053969D02*
X0005900Y0053969D01*
X0005900Y0054568D02*
X0090495Y0054568D01*
X0091094Y0055166D02*
X0005900Y0055166D01*
X0005900Y0055765D02*
X0091692Y0055765D01*
X0092291Y0056363D02*
X0005900Y0056363D01*
X0005900Y0056962D02*
X0092890Y0056962D01*
X0093488Y0057560D02*
X0005900Y0057560D01*
X0005900Y0058159D02*
X0094087Y0058159D01*
X0094685Y0058757D02*
X0005900Y0058757D01*
X0005900Y0059356D02*
X0095284Y0059356D01*
X0095882Y0059954D02*
X0005900Y0059954D01*
X0005900Y0060553D02*
X0096481Y0060553D01*
X0097079Y0061151D02*
X0005900Y0061151D01*
X0005900Y0061750D02*
X0097678Y0061750D01*
X0098276Y0062348D02*
X0005900Y0062348D01*
X0005900Y0062947D02*
X0096139Y0062947D01*
X0095820Y0063545D02*
X0005900Y0063545D01*
X0005900Y0064144D02*
X0095820Y0064144D01*
X0095820Y0064742D02*
X0005900Y0064742D01*
X0005900Y0065341D02*
X0095820Y0065341D01*
X0095820Y0065939D02*
X0005900Y0065939D01*
X0005900Y0066538D02*
X0095820Y0066538D01*
X0095820Y0067136D02*
X0005900Y0067136D01*
X0005900Y0067735D02*
X0095820Y0067735D01*
X0095820Y0068333D02*
X0005900Y0068333D01*
X0005900Y0068932D02*
X0095820Y0068932D01*
X0095820Y0069530D02*
X0005900Y0069530D01*
X0005900Y0070129D02*
X0095820Y0070129D01*
X0096237Y0070727D02*
X0005900Y0070727D01*
X0005900Y0071326D02*
X0103104Y0071326D01*
X0103702Y0071924D02*
X0005900Y0071924D01*
X0005900Y0072523D02*
X0104301Y0072523D01*
X0104899Y0073121D02*
X0005900Y0073121D01*
X0005900Y0074917D02*
X0081422Y0074917D01*
X0080824Y0075515D02*
X0005900Y0075515D01*
X0005900Y0076114D02*
X0080457Y0076114D01*
X0080209Y0076712D02*
X0005900Y0076712D01*
X0005900Y0077311D02*
X0080122Y0077311D01*
X0080122Y0077909D02*
X0005900Y0077909D01*
X0005900Y0078508D02*
X0080238Y0078508D01*
X0080486Y0079106D02*
X0005900Y0079106D01*
X0005900Y0079705D02*
X0080894Y0079705D01*
X0081493Y0080303D02*
X0005900Y0080303D01*
X0005900Y0080902D02*
X0095820Y0080902D01*
X0095820Y0080303D02*
X0085307Y0080303D01*
X0085906Y0079705D02*
X0095820Y0079705D01*
X0095820Y0079106D02*
X0086314Y0079106D01*
X0095986Y0081501D02*
X0005900Y0081501D01*
X0005900Y0044991D02*
X0080919Y0044991D01*
X0078639Y0044393D02*
X0005900Y0044393D01*
X0005900Y0043794D02*
X0078041Y0043794D01*
X0077442Y0043196D02*
X0005900Y0043196D01*
X0005900Y0042597D02*
X0077361Y0042597D01*
X0077361Y0041999D02*
X0005900Y0041999D01*
X0005900Y0041400D02*
X0077361Y0041400D01*
X0077695Y0040802D02*
X0005900Y0040802D01*
X0005900Y0040203D02*
X0078293Y0040203D01*
X0100473Y0061151D02*
X0165789Y0061151D01*
X0165789Y0060553D02*
X0162233Y0060553D01*
X0162832Y0059954D02*
X0166168Y0059954D01*
X0165789Y0061750D02*
X0101072Y0061750D01*
X0101463Y0062348D02*
X0165789Y0062348D01*
X0165789Y0062947D02*
X0104387Y0062947D01*
X0104706Y0063545D02*
X0165789Y0063545D01*
X0165789Y0064144D02*
X0104706Y0064144D01*
X0104706Y0064742D02*
X0165789Y0064742D01*
X0165789Y0065341D02*
X0104706Y0065341D01*
X0104706Y0065939D02*
X0148232Y0065939D01*
X0147634Y0066538D02*
X0104706Y0066538D01*
X0104706Y0067136D02*
X0147036Y0067136D01*
X0147036Y0067735D02*
X0104706Y0067735D01*
X0104706Y0068333D02*
X0147036Y0068333D01*
X0147036Y0068932D02*
X0104706Y0068932D01*
X0104706Y0069530D02*
X0147452Y0069530D01*
X0148050Y0070129D02*
X0105301Y0070129D01*
X0110089Y0074917D02*
X0167326Y0074917D01*
X0169523Y0073720D02*
X0182102Y0073720D01*
X0182057Y0073121D02*
X0182701Y0073121D01*
X0182656Y0072523D02*
X0235775Y0072523D01*
X0235775Y0073121D02*
X0210393Y0073121D01*
X0210950Y0073720D02*
X0235775Y0073720D01*
X0235775Y0074318D02*
X0210950Y0074318D01*
X0210950Y0074917D02*
X0235775Y0074917D01*
X0235775Y0075515D02*
X0210950Y0075515D01*
X0210950Y0076114D02*
X0235775Y0076114D01*
X0235559Y0076712D02*
X0210950Y0076712D01*
X0210950Y0077311D02*
X0234961Y0077311D01*
X0234586Y0077909D02*
X0210950Y0077909D01*
X0210950Y0078508D02*
X0234586Y0078508D01*
X0234586Y0079106D02*
X0210950Y0079106D01*
X0210950Y0079705D02*
X0234626Y0079705D01*
X0235225Y0080303D02*
X0210950Y0080303D01*
X0210950Y0080902D02*
X0235823Y0080902D01*
X0236975Y0078675D02*
X0236975Y0055725D01*
X0248875Y0043825D01*
X0246486Y0043794D02*
X0203015Y0043794D01*
X0203613Y0043196D02*
X0246486Y0043196D01*
X0246724Y0042597D02*
X0204212Y0042597D01*
X0204810Y0041999D02*
X0247323Y0041999D01*
X0246486Y0044393D02*
X0202416Y0044393D01*
X0201818Y0044991D02*
X0246012Y0044991D01*
X0245413Y0045590D02*
X0201219Y0045590D01*
X0200620Y0046188D02*
X0244815Y0046188D01*
X0244216Y0046787D02*
X0200022Y0046787D01*
X0199423Y0047385D02*
X0243618Y0047385D01*
X0243019Y0047984D02*
X0198825Y0047984D01*
X0198226Y0048582D02*
X0242421Y0048582D01*
X0241822Y0049181D02*
X0197628Y0049181D01*
X0197029Y0049779D02*
X0241224Y0049779D01*
X0240625Y0050378D02*
X0196431Y0050378D01*
X0195832Y0050976D02*
X0240027Y0050976D01*
X0239428Y0051575D02*
X0195234Y0051575D01*
X0194635Y0052173D02*
X0238829Y0052173D01*
X0238231Y0052772D02*
X0194037Y0052772D01*
X0193438Y0053370D02*
X0237632Y0053370D01*
X0237034Y0053969D02*
X0192840Y0053969D01*
X0192241Y0054568D02*
X0236435Y0054568D01*
X0235837Y0055166D02*
X0191643Y0055166D01*
X0191044Y0055765D02*
X0235775Y0055765D01*
X0235775Y0056363D02*
X0190446Y0056363D01*
X0189847Y0056962D02*
X0235775Y0056962D01*
X0235775Y0057560D02*
X0189249Y0057560D01*
X0188650Y0058159D02*
X0235775Y0058159D01*
X0235775Y0058757D02*
X0188052Y0058757D01*
X0187453Y0059356D02*
X0235775Y0059356D01*
X0235775Y0059954D02*
X0186855Y0059954D01*
X0186256Y0060553D02*
X0235775Y0060553D01*
X0235775Y0061151D02*
X0185658Y0061151D01*
X0185059Y0061750D02*
X0235775Y0061750D01*
X0235775Y0062348D02*
X0184911Y0062348D01*
X0184911Y0062947D02*
X0235775Y0062947D01*
X0235775Y0063545D02*
X0184911Y0063545D01*
X0184911Y0064144D02*
X0235775Y0064144D01*
X0235775Y0064742D02*
X0184911Y0064742D01*
X0184911Y0065341D02*
X0235775Y0065341D01*
X0235775Y0065939D02*
X0184911Y0065939D01*
X0184911Y0066538D02*
X0235775Y0066538D01*
X0235775Y0067136D02*
X0184911Y0067136D01*
X0184911Y0067735D02*
X0235775Y0067735D01*
X0235775Y0068333D02*
X0184744Y0068333D01*
X0182859Y0069530D02*
X0235775Y0069530D01*
X0235775Y0068932D02*
X0182260Y0068932D01*
X0183264Y0070129D02*
X0235775Y0070129D01*
X0235775Y0070727D02*
X0183264Y0070727D01*
X0183264Y0071326D02*
X0235775Y0071326D01*
X0235775Y0071924D02*
X0183254Y0071924D01*
X0183701Y0075515D02*
X0208550Y0075515D01*
X0208550Y0076114D02*
X0183102Y0076114D01*
X0168458Y0086887D02*
X0201690Y0086887D01*
X0202289Y0087486D02*
X0168686Y0087486D01*
X0168686Y0088084D02*
X0202887Y0088084D01*
X0204486Y0086289D02*
X0208550Y0086289D01*
X0208550Y0086887D02*
X0205084Y0086887D01*
X0205683Y0087486D02*
X0208550Y0087486D01*
X0208974Y0088084D02*
X0206281Y0088084D01*
X0206880Y0088683D02*
X0209572Y0088683D01*
X0210171Y0089281D02*
X0207478Y0089281D01*
X0208077Y0089880D02*
X0210769Y0089880D01*
X0211368Y0090478D02*
X0208675Y0090478D01*
X0209274Y0091077D02*
X0211966Y0091077D01*
X0211554Y0091675D02*
X0212565Y0091675D01*
X0208550Y0085690D02*
X0203887Y0085690D01*
X0203289Y0085092D02*
X0208550Y0085092D01*
X0208550Y0084493D02*
X0202690Y0084493D01*
X0202092Y0083895D02*
X0208550Y0083895D01*
X0208550Y0083296D02*
X0201493Y0083296D01*
X0200895Y0082698D02*
X0208550Y0082698D01*
X0180350Y0107600D02*
X0179400Y0106650D01*
X0180350Y0107600D02*
X0180350Y0136125D01*
X0164675Y0136125D01*
X0163050Y0137750D01*
X0163583Y0133571D02*
X0170267Y0133571D01*
X0169669Y0132972D02*
X0164181Y0132972D01*
X0162525Y0131250D02*
X0171325Y0131250D01*
X0171650Y0131575D01*
X0173433Y0129980D02*
X0179150Y0129980D01*
X0179150Y0130578D02*
X0174032Y0130578D01*
X0174039Y0131177D02*
X0179150Y0131177D01*
X0179150Y0131775D02*
X0174039Y0131775D01*
X0174039Y0132374D02*
X0179150Y0132374D01*
X0179150Y0132972D02*
X0173631Y0132972D01*
X0173033Y0133571D02*
X0179150Y0133571D01*
X0179150Y0129381D02*
X0172835Y0129381D01*
X0170465Y0129381D02*
X0164035Y0129381D01*
X0164633Y0129980D02*
X0169867Y0129980D01*
X0165136Y0124593D02*
X0179150Y0124593D01*
X0179150Y0123995D02*
X0165136Y0123995D01*
X0165136Y0123396D02*
X0179150Y0123396D01*
X0179150Y0122798D02*
X0165136Y0122798D01*
X0165136Y0122199D02*
X0179150Y0122199D01*
X0179150Y0121601D02*
X0165136Y0121601D01*
X0165136Y0121002D02*
X0179150Y0121002D01*
X0179150Y0120404D02*
X0165136Y0120404D01*
X0165136Y0119805D02*
X0179150Y0119805D01*
X0179150Y0119207D02*
X0165136Y0119207D01*
X0165136Y0118608D02*
X0179150Y0118608D01*
X0179150Y0118010D02*
X0165136Y0118010D01*
X0165136Y0117411D02*
X0179150Y0117411D01*
X0179150Y0116813D02*
X0165136Y0116813D01*
X0161087Y0118712D02*
X0161087Y0120725D01*
X0161087Y0118712D02*
X0156525Y0114150D01*
X0158377Y0112623D02*
X0179150Y0112623D01*
X0179150Y0112025D02*
X0157778Y0112025D01*
X0158914Y0113222D02*
X0179150Y0113222D01*
X0179150Y0113820D02*
X0158914Y0113820D01*
X0158914Y0114419D02*
X0179150Y0114419D01*
X0179150Y0115017D02*
X0159089Y0115017D01*
X0159688Y0115616D02*
X0179150Y0115616D01*
X0179150Y0116214D02*
X0160286Y0116214D01*
X0157037Y0116813D02*
X0154113Y0116813D01*
X0154113Y0117411D02*
X0157037Y0117411D01*
X0157037Y0118010D02*
X0154113Y0118010D01*
X0154113Y0118608D02*
X0157037Y0118608D01*
X0157037Y0119207D02*
X0154113Y0119207D01*
X0154113Y0119805D02*
X0157037Y0119805D01*
X0157037Y0120404D02*
X0154113Y0120404D01*
X0154113Y0121002D02*
X0157037Y0121002D01*
X0157037Y0121601D02*
X0154113Y0121601D01*
X0154113Y0122199D02*
X0157037Y0122199D01*
X0157037Y0122798D02*
X0154113Y0122798D01*
X0154113Y0123396D02*
X0157037Y0123396D01*
X0157037Y0123995D02*
X0154113Y0123995D01*
X0154113Y0124593D02*
X0157037Y0124593D01*
X0161015Y0129381D02*
X0145911Y0129381D01*
X0145911Y0128783D02*
X0179150Y0128783D01*
X0179150Y0128184D02*
X0145911Y0128184D01*
X0145911Y0127586D02*
X0179150Y0127586D01*
X0179150Y0126987D02*
X0145911Y0126987D01*
X0145911Y0126389D02*
X0179150Y0126389D01*
X0179150Y0125790D02*
X0146120Y0125790D01*
X0146718Y0125192D02*
X0179150Y0125192D01*
X0181550Y0116813D02*
X0220016Y0116813D01*
X0219938Y0116214D02*
X0181550Y0116214D01*
X0181550Y0115616D02*
X0219938Y0115616D01*
X0219938Y0115017D02*
X0181550Y0115017D01*
X0181550Y0114419D02*
X0219938Y0114419D01*
X0219938Y0113820D02*
X0181550Y0113820D01*
X0181550Y0113222D02*
X0219938Y0113222D01*
X0219938Y0112623D02*
X0181550Y0112623D01*
X0181550Y0112025D02*
X0219938Y0112025D01*
X0219938Y0111426D02*
X0181550Y0111426D01*
X0181550Y0110828D02*
X0219938Y0110828D01*
X0219938Y0110229D02*
X0181550Y0110229D01*
X0181550Y0109631D02*
X0219997Y0109631D01*
X0160417Y0129980D02*
X0145911Y0129980D01*
X0145911Y0130578D02*
X0160136Y0130578D01*
X0160136Y0131177D02*
X0145911Y0131177D01*
X0145365Y0131775D02*
X0160136Y0131775D01*
X0160270Y0132374D02*
X0144766Y0132374D01*
X0140262Y0126650D02*
X0135427Y0126650D01*
X0134877Y0127200D01*
X0157649Y0104428D01*
X0150158Y0113616D02*
X0147492Y0116282D01*
X0149821Y0116282D01*
X0150486Y0115617D01*
X0150158Y0115290D01*
X0150158Y0113616D01*
X0150158Y0113820D02*
X0149954Y0113820D01*
X0150158Y0114419D02*
X0149355Y0114419D01*
X0148757Y0115017D02*
X0150158Y0115017D01*
X0150484Y0115616D02*
X0148158Y0115616D01*
X0147560Y0116214D02*
X0149889Y0116214D01*
X0146014Y0117760D02*
X0146014Y0122503D01*
X0144311Y0124205D01*
X0144311Y0122734D01*
X0143784Y0122207D01*
X0141567Y0122207D01*
X0146014Y0117760D01*
X0146014Y0118010D02*
X0145764Y0118010D01*
X0146014Y0118608D02*
X0145166Y0118608D01*
X0144567Y0119207D02*
X0146014Y0119207D01*
X0146014Y0119805D02*
X0143969Y0119805D01*
X0143370Y0120404D02*
X0146014Y0120404D01*
X0146014Y0121002D02*
X0142772Y0121002D01*
X0142173Y0121601D02*
X0146014Y0121601D01*
X0146014Y0122199D02*
X0141575Y0122199D01*
X0144311Y0122798D02*
X0145718Y0122798D01*
X0145120Y0123396D02*
X0144311Y0123396D01*
X0144311Y0123995D02*
X0144521Y0123995D01*
X0150063Y0120725D02*
X0150063Y0120150D01*
X0154011Y0116214D02*
X0155211Y0116214D01*
X0154612Y0115616D02*
X0154610Y0115616D01*
X0136212Y0122798D02*
X0133288Y0122798D01*
X0133288Y0123396D02*
X0136212Y0123396D01*
X0136212Y0123995D02*
X0133288Y0123995D01*
X0133288Y0124593D02*
X0135786Y0124593D01*
X0133506Y0125192D02*
X0133288Y0125192D01*
X0136212Y0129243D02*
X0136212Y0130293D01*
X0135723Y0130293D01*
X0135019Y0129589D01*
X0135866Y0129589D01*
X0136212Y0129243D01*
X0136212Y0129381D02*
X0136074Y0129381D01*
X0136212Y0129980D02*
X0135410Y0129980D01*
X0112450Y0165137D02*
X0113550Y0166237D01*
X0124237Y0166237D01*
X0127625Y0169625D01*
X0109034Y0170080D02*
X0058079Y0170080D01*
X0024719Y0164095D02*
X0023724Y0164095D01*
X0023564Y0163497D02*
X0024713Y0163497D01*
X0024706Y0162898D02*
X0023404Y0162898D01*
X0023199Y0162300D02*
X0024700Y0162300D01*
X0024694Y0161701D02*
X0022854Y0161701D01*
X0022508Y0161103D02*
X0024668Y0161103D01*
X0024070Y0160504D02*
X0022163Y0160504D01*
X0021797Y0159905D02*
X0023471Y0159905D01*
X0022873Y0159307D02*
X0021199Y0159307D01*
X0020600Y0158708D02*
X0022274Y0158708D01*
X0021676Y0158110D02*
X0020002Y0158110D01*
X0019103Y0157511D02*
X0021077Y0157511D01*
X0020500Y0156913D02*
X0018067Y0156913D01*
X0016691Y0156314D02*
X0020500Y0156314D01*
X0020500Y0155716D02*
X0005900Y0155716D01*
X0005900Y0156314D02*
X0009531Y0156314D01*
X0008155Y0156913D02*
X0005900Y0156913D01*
X0005900Y0157511D02*
X0007119Y0157511D01*
X0006220Y0158110D02*
X0005900Y0158110D01*
X0005900Y0155117D02*
X0020500Y0155117D01*
X0020500Y0154519D02*
X0005900Y0154519D01*
X0005900Y0153920D02*
X0020500Y0153920D01*
X0020500Y0153322D02*
X0005900Y0153322D01*
X0120682Y0083296D02*
X0127567Y0083296D01*
X0127157Y0082698D02*
X0121281Y0082698D01*
X0121879Y0082099D02*
X0127157Y0082099D01*
X0127157Y0081501D02*
X0122064Y0081501D01*
X0122064Y0080902D02*
X0127157Y0080902D01*
X0127157Y0077909D02*
X0122301Y0077909D01*
X0121702Y0077311D02*
X0127157Y0077311D01*
X0127157Y0076712D02*
X0121104Y0076712D01*
X0120505Y0076114D02*
X0127157Y0076114D01*
X0127482Y0075515D02*
X0119907Y0075515D01*
X0118409Y0077412D02*
X0117859Y0077412D01*
X0118983Y0078536D01*
X0119533Y0078536D01*
X0118409Y0077412D01*
X0118356Y0077909D02*
X0118907Y0077909D01*
X0118955Y0078508D02*
X0119505Y0078508D01*
X0119675Y0080925D02*
X0116562Y0077812D01*
X0100263Y0077812D01*
X0149425Y0068125D02*
X0162231Y0068125D01*
X0162939Y0067136D02*
X0165789Y0067136D01*
X0165789Y0066538D02*
X0151216Y0066538D01*
X0150618Y0065939D02*
X0165789Y0065939D01*
X0165789Y0067735D02*
X0163538Y0067735D01*
X0164136Y0068333D02*
X0165956Y0068333D01*
X0169838Y0064250D02*
X0169838Y0063106D01*
X0176060Y0056885D01*
X0173089Y0058159D02*
X0163296Y0058159D01*
X0163296Y0058757D02*
X0172490Y0058757D01*
X0171892Y0059356D02*
X0163296Y0059356D01*
X0165025Y0055050D02*
X0166650Y0055050D01*
X0008145Y0022846D02*
X0005900Y0022846D01*
X0005900Y0022248D02*
X0007108Y0022248D01*
X0006214Y0021649D02*
X0005900Y0021649D01*
D19*
X0079750Y0042125D03*
X0119675Y0080925D03*
X0119950Y0088450D03*
X0137550Y0090225D03*
X0149350Y0083950D03*
X0153850Y0082250D03*
X0167250Y0082550D03*
X0180875Y0070925D03*
X0160907Y0058500D03*
X0165025Y0055050D03*
X0176060Y0056885D03*
X0166485Y0046800D03*
X0149425Y0068125D03*
X0163850Y0098850D03*
X0160450Y0101639D03*
X0156525Y0114150D03*
X0152547Y0114300D03*
X0134877Y0127200D03*
X0135400Y0140700D03*
X0128536Y0156375D03*
X0127625Y0169625D03*
X0103550Y0144475D03*
X0100500Y0140600D03*
X0088075Y0147575D03*
X0078775Y0141750D03*
X0070350Y0158050D03*
X0085775Y0124300D03*
X0046800Y0093325D03*
X0030750Y0103225D03*
X0162525Y0131250D03*
X0163050Y0137750D03*
X0171650Y0131575D03*
X0179400Y0106650D03*
X0196700Y0100425D03*
X0202700Y0092425D03*
X0210350Y0093850D03*
X0206975Y0100425D03*
X0233200Y0096875D03*
X0236975Y0078675D03*
X0269775Y0098350D03*
X0269525Y0136450D03*
X0268525Y0157750D03*
X0248875Y0043825D03*
X0272925Y0018850D03*
X0211075Y0015525D03*
M02*
