G75*
%MOIN*%
%OFA0B0*%
%FSLAX25Y25*%
%IPPOS*%
%LPD*%
%AMOC8*
5,1,8,0,0,1.08239X$1,22.5*
%
%ADD10C,0.01600*%
%ADD11C,0.00600*%
%ADD12C,0.01000*%
%ADD13C,0.00800*%
D10*
X0074400Y0075575D02*
X0074400Y0098575D01*
X0074403Y0098794D01*
X0074411Y0099013D01*
X0074424Y0099232D01*
X0074443Y0099450D01*
X0074467Y0099668D01*
X0074496Y0099885D01*
X0074530Y0100102D01*
X0074570Y0100317D01*
X0074615Y0100532D01*
X0074666Y0100745D01*
X0074721Y0100957D01*
X0074782Y0101168D01*
X0074847Y0101377D01*
X0074918Y0101584D01*
X0074994Y0101790D01*
X0075075Y0101994D01*
X0075160Y0102196D01*
X0075251Y0102395D01*
X0075346Y0102592D01*
X0075447Y0102787D01*
X0075552Y0102980D01*
X0075661Y0103170D01*
X0075775Y0103357D01*
X0075894Y0103541D01*
X0076017Y0103722D01*
X0076145Y0103900D01*
X0076277Y0104076D01*
X0076413Y0104247D01*
X0076553Y0104416D01*
X0076697Y0104581D01*
X0076845Y0104742D01*
X0076997Y0104900D01*
X0077153Y0105054D01*
X0077313Y0105204D01*
X0077476Y0105351D01*
X0077643Y0105493D01*
X0077813Y0105631D01*
X0077987Y0105765D01*
X0078163Y0105895D01*
X0078343Y0106020D01*
X0078526Y0106141D01*
X0078712Y0106257D01*
X0078900Y0106369D01*
X0079091Y0106476D01*
X0079285Y0106579D01*
X0079481Y0106677D01*
X0079679Y0106770D01*
X0079880Y0106858D01*
X0080083Y0106941D01*
X0080288Y0107020D01*
X0080494Y0107093D01*
X0080702Y0107161D01*
X0080912Y0107224D01*
X0081124Y0107282D01*
X0081336Y0107335D01*
X0081550Y0107383D01*
X0081765Y0107425D01*
X0081981Y0107462D01*
X0082198Y0107494D01*
X0082416Y0107521D01*
X0082634Y0107542D01*
X0082852Y0107558D01*
X0083071Y0107569D01*
X0083290Y0107574D01*
X0083510Y0107574D01*
X0083729Y0107569D01*
X0083948Y0107558D01*
X0084166Y0107542D01*
X0084384Y0107521D01*
X0084602Y0107494D01*
X0084819Y0107462D01*
X0085035Y0107425D01*
X0085250Y0107383D01*
X0085464Y0107335D01*
X0085676Y0107282D01*
X0085888Y0107224D01*
X0086098Y0107161D01*
X0086306Y0107093D01*
X0086512Y0107020D01*
X0086717Y0106941D01*
X0086920Y0106858D01*
X0087121Y0106770D01*
X0087319Y0106677D01*
X0087515Y0106579D01*
X0087709Y0106476D01*
X0087900Y0106369D01*
X0088088Y0106257D01*
X0088274Y0106141D01*
X0088457Y0106020D01*
X0088637Y0105895D01*
X0088813Y0105765D01*
X0088987Y0105631D01*
X0089157Y0105493D01*
X0089324Y0105351D01*
X0089487Y0105204D01*
X0089647Y0105054D01*
X0089803Y0104900D01*
X0089955Y0104742D01*
X0090103Y0104581D01*
X0090247Y0104416D01*
X0090387Y0104247D01*
X0090523Y0104076D01*
X0090655Y0103900D01*
X0090783Y0103722D01*
X0090906Y0103541D01*
X0091025Y0103357D01*
X0091139Y0103170D01*
X0091248Y0102980D01*
X0091353Y0102787D01*
X0091454Y0102592D01*
X0091549Y0102395D01*
X0091640Y0102196D01*
X0091725Y0101994D01*
X0091806Y0101790D01*
X0091882Y0101584D01*
X0091953Y0101377D01*
X0092018Y0101168D01*
X0092079Y0100957D01*
X0092134Y0100745D01*
X0092185Y0100532D01*
X0092230Y0100317D01*
X0092270Y0100102D01*
X0092304Y0099885D01*
X0092333Y0099668D01*
X0092357Y0099450D01*
X0092376Y0099232D01*
X0092389Y0099013D01*
X0092397Y0098794D01*
X0092400Y0098575D01*
X0092400Y0075575D01*
X0092397Y0075356D01*
X0092389Y0075137D01*
X0092376Y0074918D01*
X0092357Y0074700D01*
X0092333Y0074482D01*
X0092304Y0074265D01*
X0092270Y0074048D01*
X0092230Y0073833D01*
X0092185Y0073618D01*
X0092134Y0073405D01*
X0092079Y0073193D01*
X0092018Y0072982D01*
X0091953Y0072773D01*
X0091882Y0072566D01*
X0091806Y0072360D01*
X0091725Y0072156D01*
X0091640Y0071954D01*
X0091549Y0071755D01*
X0091454Y0071558D01*
X0091353Y0071363D01*
X0091248Y0071170D01*
X0091139Y0070980D01*
X0091025Y0070793D01*
X0090906Y0070609D01*
X0090783Y0070428D01*
X0090655Y0070250D01*
X0090523Y0070074D01*
X0090387Y0069903D01*
X0090247Y0069734D01*
X0090103Y0069569D01*
X0089955Y0069408D01*
X0089803Y0069250D01*
X0089647Y0069096D01*
X0089487Y0068946D01*
X0089324Y0068799D01*
X0089157Y0068657D01*
X0088987Y0068519D01*
X0088813Y0068385D01*
X0088637Y0068255D01*
X0088457Y0068130D01*
X0088274Y0068009D01*
X0088088Y0067893D01*
X0087900Y0067781D01*
X0087709Y0067674D01*
X0087515Y0067571D01*
X0087319Y0067473D01*
X0087121Y0067380D01*
X0086920Y0067292D01*
X0086717Y0067209D01*
X0086512Y0067130D01*
X0086306Y0067057D01*
X0086098Y0066989D01*
X0085888Y0066926D01*
X0085676Y0066868D01*
X0085464Y0066815D01*
X0085250Y0066767D01*
X0085035Y0066725D01*
X0084819Y0066688D01*
X0084602Y0066656D01*
X0084384Y0066629D01*
X0084166Y0066608D01*
X0083948Y0066592D01*
X0083729Y0066581D01*
X0083510Y0066576D01*
X0083290Y0066576D01*
X0083071Y0066581D01*
X0082852Y0066592D01*
X0082634Y0066608D01*
X0082416Y0066629D01*
X0082198Y0066656D01*
X0081981Y0066688D01*
X0081765Y0066725D01*
X0081550Y0066767D01*
X0081336Y0066815D01*
X0081124Y0066868D01*
X0080912Y0066926D01*
X0080702Y0066989D01*
X0080494Y0067057D01*
X0080288Y0067130D01*
X0080083Y0067209D01*
X0079880Y0067292D01*
X0079679Y0067380D01*
X0079481Y0067473D01*
X0079285Y0067571D01*
X0079091Y0067674D01*
X0078900Y0067781D01*
X0078712Y0067893D01*
X0078526Y0068009D01*
X0078343Y0068130D01*
X0078163Y0068255D01*
X0077987Y0068385D01*
X0077813Y0068519D01*
X0077643Y0068657D01*
X0077476Y0068799D01*
X0077313Y0068946D01*
X0077153Y0069096D01*
X0076997Y0069250D01*
X0076845Y0069408D01*
X0076697Y0069569D01*
X0076553Y0069734D01*
X0076413Y0069903D01*
X0076277Y0070074D01*
X0076145Y0070250D01*
X0076017Y0070428D01*
X0075894Y0070609D01*
X0075775Y0070793D01*
X0075661Y0070980D01*
X0075552Y0071170D01*
X0075447Y0071363D01*
X0075346Y0071558D01*
X0075251Y0071755D01*
X0075160Y0071954D01*
X0075075Y0072156D01*
X0074994Y0072360D01*
X0074918Y0072566D01*
X0074847Y0072773D01*
X0074782Y0072982D01*
X0074721Y0073193D01*
X0074666Y0073405D01*
X0074615Y0073618D01*
X0074570Y0073833D01*
X0074530Y0074048D01*
X0074496Y0074265D01*
X0074467Y0074482D01*
X0074443Y0074700D01*
X0074424Y0074918D01*
X0074411Y0075137D01*
X0074403Y0075356D01*
X0074400Y0075575D01*
D11*
X0076400Y0075575D02*
X0076400Y0098575D01*
X0076402Y0098745D01*
X0076408Y0098916D01*
X0076419Y0099086D01*
X0076433Y0099256D01*
X0076452Y0099425D01*
X0076475Y0099594D01*
X0076501Y0099763D01*
X0076532Y0099930D01*
X0076567Y0100097D01*
X0076607Y0100263D01*
X0076650Y0100428D01*
X0076697Y0100592D01*
X0076748Y0100754D01*
X0076803Y0100916D01*
X0076862Y0101076D01*
X0076925Y0101234D01*
X0076991Y0101391D01*
X0077062Y0101546D01*
X0077136Y0101700D01*
X0077214Y0101851D01*
X0077296Y0102001D01*
X0077381Y0102149D01*
X0077470Y0102294D01*
X0077562Y0102437D01*
X0077658Y0102578D01*
X0077757Y0102717D01*
X0077860Y0102853D01*
X0077965Y0102987D01*
X0078074Y0103118D01*
X0078187Y0103246D01*
X0078302Y0103372D01*
X0078420Y0103495D01*
X0078541Y0103614D01*
X0078666Y0103731D01*
X0078793Y0103845D01*
X0078922Y0103956D01*
X0079055Y0104063D01*
X0079190Y0104167D01*
X0079327Y0104268D01*
X0079467Y0104366D01*
X0079609Y0104460D01*
X0079753Y0104550D01*
X0079900Y0104637D01*
X0080049Y0104721D01*
X0080199Y0104800D01*
X0080352Y0104876D01*
X0080506Y0104949D01*
X0080662Y0105017D01*
X0080820Y0105082D01*
X0080979Y0105143D01*
X0081140Y0105200D01*
X0081302Y0105253D01*
X0081465Y0105302D01*
X0081629Y0105347D01*
X0081795Y0105388D01*
X0081961Y0105426D01*
X0082129Y0105459D01*
X0082297Y0105487D01*
X0082465Y0105512D01*
X0082634Y0105533D01*
X0082804Y0105550D01*
X0082974Y0105562D01*
X0083144Y0105570D01*
X0083315Y0105574D01*
X0083485Y0105574D01*
X0083656Y0105570D01*
X0083826Y0105562D01*
X0083996Y0105550D01*
X0084166Y0105533D01*
X0084335Y0105512D01*
X0084503Y0105487D01*
X0084671Y0105459D01*
X0084839Y0105426D01*
X0085005Y0105388D01*
X0085171Y0105347D01*
X0085335Y0105302D01*
X0085498Y0105253D01*
X0085660Y0105200D01*
X0085821Y0105143D01*
X0085980Y0105082D01*
X0086138Y0105017D01*
X0086294Y0104949D01*
X0086448Y0104876D01*
X0086601Y0104800D01*
X0086751Y0104721D01*
X0086900Y0104637D01*
X0087047Y0104550D01*
X0087191Y0104460D01*
X0087333Y0104366D01*
X0087473Y0104268D01*
X0087610Y0104167D01*
X0087745Y0104063D01*
X0087878Y0103956D01*
X0088007Y0103845D01*
X0088134Y0103731D01*
X0088259Y0103614D01*
X0088380Y0103495D01*
X0088498Y0103372D01*
X0088613Y0103246D01*
X0088726Y0103118D01*
X0088835Y0102987D01*
X0088940Y0102853D01*
X0089043Y0102717D01*
X0089142Y0102578D01*
X0089238Y0102437D01*
X0089330Y0102294D01*
X0089419Y0102149D01*
X0089504Y0102001D01*
X0089586Y0101851D01*
X0089664Y0101700D01*
X0089738Y0101546D01*
X0089809Y0101391D01*
X0089875Y0101234D01*
X0089938Y0101076D01*
X0089997Y0100916D01*
X0090052Y0100754D01*
X0090103Y0100592D01*
X0090150Y0100428D01*
X0090193Y0100263D01*
X0090233Y0100097D01*
X0090268Y0099930D01*
X0090299Y0099763D01*
X0090325Y0099594D01*
X0090348Y0099425D01*
X0090367Y0099256D01*
X0090381Y0099086D01*
X0090392Y0098916D01*
X0090398Y0098745D01*
X0090400Y0098575D01*
X0090400Y0075575D01*
X0090398Y0075405D01*
X0090392Y0075234D01*
X0090381Y0075064D01*
X0090367Y0074894D01*
X0090348Y0074725D01*
X0090325Y0074556D01*
X0090299Y0074387D01*
X0090268Y0074220D01*
X0090233Y0074053D01*
X0090193Y0073887D01*
X0090150Y0073722D01*
X0090103Y0073558D01*
X0090052Y0073396D01*
X0089997Y0073234D01*
X0089938Y0073074D01*
X0089875Y0072916D01*
X0089809Y0072759D01*
X0089738Y0072604D01*
X0089664Y0072450D01*
X0089586Y0072299D01*
X0089504Y0072149D01*
X0089419Y0072001D01*
X0089330Y0071856D01*
X0089238Y0071713D01*
X0089142Y0071572D01*
X0089043Y0071433D01*
X0088940Y0071297D01*
X0088835Y0071163D01*
X0088726Y0071032D01*
X0088613Y0070904D01*
X0088498Y0070778D01*
X0088380Y0070655D01*
X0088259Y0070536D01*
X0088134Y0070419D01*
X0088007Y0070305D01*
X0087878Y0070194D01*
X0087745Y0070087D01*
X0087610Y0069983D01*
X0087473Y0069882D01*
X0087333Y0069784D01*
X0087191Y0069690D01*
X0087047Y0069600D01*
X0086900Y0069513D01*
X0086751Y0069429D01*
X0086601Y0069350D01*
X0086448Y0069274D01*
X0086294Y0069201D01*
X0086138Y0069133D01*
X0085980Y0069068D01*
X0085821Y0069007D01*
X0085660Y0068950D01*
X0085498Y0068897D01*
X0085335Y0068848D01*
X0085171Y0068803D01*
X0085005Y0068762D01*
X0084839Y0068724D01*
X0084671Y0068691D01*
X0084503Y0068663D01*
X0084335Y0068638D01*
X0084166Y0068617D01*
X0083996Y0068600D01*
X0083826Y0068588D01*
X0083656Y0068580D01*
X0083485Y0068576D01*
X0083315Y0068576D01*
X0083144Y0068580D01*
X0082974Y0068588D01*
X0082804Y0068600D01*
X0082634Y0068617D01*
X0082465Y0068638D01*
X0082297Y0068663D01*
X0082129Y0068691D01*
X0081961Y0068724D01*
X0081795Y0068762D01*
X0081629Y0068803D01*
X0081465Y0068848D01*
X0081302Y0068897D01*
X0081140Y0068950D01*
X0080979Y0069007D01*
X0080820Y0069068D01*
X0080662Y0069133D01*
X0080506Y0069201D01*
X0080352Y0069274D01*
X0080199Y0069350D01*
X0080049Y0069429D01*
X0079900Y0069513D01*
X0079753Y0069600D01*
X0079609Y0069690D01*
X0079467Y0069784D01*
X0079327Y0069882D01*
X0079190Y0069983D01*
X0079055Y0070087D01*
X0078922Y0070194D01*
X0078793Y0070305D01*
X0078666Y0070419D01*
X0078541Y0070536D01*
X0078420Y0070655D01*
X0078302Y0070778D01*
X0078187Y0070904D01*
X0078074Y0071032D01*
X0077965Y0071163D01*
X0077860Y0071297D01*
X0077757Y0071433D01*
X0077658Y0071572D01*
X0077562Y0071713D01*
X0077470Y0071856D01*
X0077381Y0072001D01*
X0077296Y0072149D01*
X0077214Y0072299D01*
X0077136Y0072450D01*
X0077062Y0072604D01*
X0076991Y0072759D01*
X0076925Y0072916D01*
X0076862Y0073074D01*
X0076803Y0073234D01*
X0076748Y0073396D01*
X0076697Y0073558D01*
X0076650Y0073722D01*
X0076607Y0073887D01*
X0076567Y0074053D01*
X0076532Y0074220D01*
X0076501Y0074387D01*
X0076475Y0074556D01*
X0076452Y0074725D01*
X0076433Y0074894D01*
X0076419Y0075064D01*
X0076408Y0075234D01*
X0076402Y0075405D01*
X0076400Y0075575D01*
D12*
X0031700Y0012150D02*
X0025450Y0012150D01*
X0025450Y0034650D01*
X0065450Y0034650D01*
X0065450Y0012150D01*
X0059200Y0012150D01*
X0059200Y0008400D01*
X0031700Y0008400D01*
X0031700Y0012150D01*
X0079225Y0014625D02*
X0119225Y0014625D01*
X0119225Y0037125D01*
X0112975Y0037125D01*
X0112975Y0040875D01*
X0085475Y0040875D01*
X0085475Y0037125D01*
X0079225Y0037125D01*
X0079225Y0014625D01*
X0037575Y0043400D02*
X0037575Y0113400D01*
X0015075Y0113400D01*
X0015075Y0092150D01*
X0011325Y0092150D01*
X0011325Y0064650D01*
X0015075Y0064650D01*
X0015075Y0043400D01*
X0037575Y0043400D01*
X0134519Y0042184D02*
X0134283Y0019685D01*
X0140533Y0019620D01*
X0140494Y0015870D01*
X0167992Y0015582D01*
X0168031Y0019332D01*
X0174281Y0019266D01*
X0174517Y0041765D01*
X0134519Y0042184D01*
X0188275Y0035325D02*
X0188275Y0012825D01*
X0219525Y0012825D01*
X0219525Y0009075D01*
X0247025Y0009075D01*
X0247025Y0012825D01*
X0278275Y0012825D01*
X0278275Y0035325D01*
X0188275Y0035325D01*
X0170980Y0078113D02*
X0146570Y0078113D01*
X0145488Y0079195D01*
X0145488Y0103605D01*
X0146570Y0104687D01*
X0170980Y0104687D01*
X0172062Y0103605D01*
X0172062Y0079195D01*
X0170980Y0078113D01*
X0236575Y0089025D02*
X0259075Y0089025D01*
X0259075Y0115275D01*
X0262825Y0115275D01*
X0262825Y0142775D01*
X0259075Y0142775D01*
X0259075Y0169025D01*
X0236575Y0169025D01*
X0236575Y0089025D01*
X0262550Y0081400D02*
X0262550Y0041400D01*
X0285050Y0041400D01*
X0285050Y0047650D01*
X0288800Y0047650D01*
X0288800Y0075150D01*
X0285050Y0075150D01*
X0285050Y0081400D01*
X0262550Y0081400D01*
X0195100Y0139700D02*
X0167600Y0139700D01*
X0167600Y0143450D01*
X0146350Y0143450D01*
X0146350Y0165950D01*
X0216350Y0165950D01*
X0216350Y0143450D01*
X0195100Y0143450D01*
X0195100Y0139700D01*
X0133650Y0138075D02*
X0122400Y0138075D01*
X0122400Y0134325D01*
X0094900Y0134325D01*
X0094900Y0138075D01*
X0083650Y0138075D01*
X0083650Y0160575D01*
X0133650Y0160575D01*
X0133650Y0138075D01*
D13*
X0063850Y0150250D02*
X0063850Y0124450D01*
X0050850Y0124450D01*
X0050850Y0150250D01*
X0063850Y0150250D01*
X0142775Y0076400D02*
X0142777Y0076463D01*
X0142783Y0076525D01*
X0142793Y0076587D01*
X0142806Y0076649D01*
X0142824Y0076709D01*
X0142845Y0076768D01*
X0142870Y0076826D01*
X0142899Y0076882D01*
X0142931Y0076936D01*
X0142966Y0076988D01*
X0143004Y0077037D01*
X0143046Y0077085D01*
X0143090Y0077129D01*
X0143138Y0077171D01*
X0143187Y0077209D01*
X0143239Y0077244D01*
X0143293Y0077276D01*
X0143349Y0077305D01*
X0143407Y0077330D01*
X0143466Y0077351D01*
X0143526Y0077369D01*
X0143588Y0077382D01*
X0143650Y0077392D01*
X0143712Y0077398D01*
X0143775Y0077400D01*
X0143838Y0077398D01*
X0143900Y0077392D01*
X0143962Y0077382D01*
X0144024Y0077369D01*
X0144084Y0077351D01*
X0144143Y0077330D01*
X0144201Y0077305D01*
X0144257Y0077276D01*
X0144311Y0077244D01*
X0144363Y0077209D01*
X0144412Y0077171D01*
X0144460Y0077129D01*
X0144504Y0077085D01*
X0144546Y0077037D01*
X0144584Y0076988D01*
X0144619Y0076936D01*
X0144651Y0076882D01*
X0144680Y0076826D01*
X0144705Y0076768D01*
X0144726Y0076709D01*
X0144744Y0076649D01*
X0144757Y0076587D01*
X0144767Y0076525D01*
X0144773Y0076463D01*
X0144775Y0076400D01*
X0144773Y0076337D01*
X0144767Y0076275D01*
X0144757Y0076213D01*
X0144744Y0076151D01*
X0144726Y0076091D01*
X0144705Y0076032D01*
X0144680Y0075974D01*
X0144651Y0075918D01*
X0144619Y0075864D01*
X0144584Y0075812D01*
X0144546Y0075763D01*
X0144504Y0075715D01*
X0144460Y0075671D01*
X0144412Y0075629D01*
X0144363Y0075591D01*
X0144311Y0075556D01*
X0144257Y0075524D01*
X0144201Y0075495D01*
X0144143Y0075470D01*
X0144084Y0075449D01*
X0144024Y0075431D01*
X0143962Y0075418D01*
X0143900Y0075408D01*
X0143838Y0075402D01*
X0143775Y0075400D01*
X0143712Y0075402D01*
X0143650Y0075408D01*
X0143588Y0075418D01*
X0143526Y0075431D01*
X0143466Y0075449D01*
X0143407Y0075470D01*
X0143349Y0075495D01*
X0143293Y0075524D01*
X0143239Y0075556D01*
X0143187Y0075591D01*
X0143138Y0075629D01*
X0143090Y0075671D01*
X0143046Y0075715D01*
X0143004Y0075763D01*
X0142966Y0075812D01*
X0142931Y0075864D01*
X0142899Y0075918D01*
X0142870Y0075974D01*
X0142845Y0076032D01*
X0142824Y0076091D01*
X0142806Y0076151D01*
X0142793Y0076213D01*
X0142783Y0076275D01*
X0142777Y0076337D01*
X0142775Y0076400D01*
M02*
