G75*
%MOIN*%
%OFA0B0*%
%FSLAX25Y25*%
%IPPOS*%
%LPD*%
%AMOC8*
5,1,8,0,0,1.08239X$1,22.5*
%
%ADD10R,0.01000X0.04500*%
%ADD11R,0.04500X0.01000*%
%ADD12R,0.05000X0.12500*%
%ADD13R,0.12500X0.05000*%
%ADD14R,0.08800X0.04800*%
%ADD15R,0.08661X0.14173*%
D10*
X0147948Y0074668D03*
X0149917Y0074668D03*
X0151885Y0074668D03*
X0153854Y0074668D03*
X0155822Y0074668D03*
X0157791Y0074668D03*
X0159759Y0074668D03*
X0161728Y0074668D03*
X0163696Y0074668D03*
X0165665Y0074668D03*
X0167633Y0074668D03*
X0169602Y0074668D03*
X0169602Y0108132D03*
X0167633Y0108132D03*
X0165665Y0108132D03*
X0163696Y0108132D03*
X0161728Y0108132D03*
X0159759Y0108132D03*
X0157791Y0108132D03*
X0155822Y0108132D03*
X0153854Y0108132D03*
X0151885Y0108132D03*
X0149917Y0108132D03*
X0147948Y0108132D03*
D11*
X0142043Y0102227D03*
X0142043Y0100258D03*
X0142043Y0098290D03*
X0142043Y0096321D03*
X0142043Y0094353D03*
X0142043Y0092384D03*
X0142043Y0090416D03*
X0142043Y0088447D03*
X0142043Y0086479D03*
X0142043Y0084510D03*
X0142043Y0082542D03*
X0142043Y0080573D03*
X0175507Y0080573D03*
X0175507Y0082542D03*
X0175507Y0084510D03*
X0175507Y0086479D03*
X0175507Y0088447D03*
X0175507Y0090416D03*
X0175507Y0092384D03*
X0175507Y0094353D03*
X0175507Y0096321D03*
X0175507Y0098290D03*
X0175507Y0100258D03*
X0175507Y0102227D03*
D12*
X0035450Y0014650D03*
X0055450Y0014650D03*
X0045450Y0032150D03*
X0089225Y0034625D03*
X0109225Y0034625D03*
X0099225Y0017125D03*
X0198275Y0015325D03*
X0218275Y0015325D03*
X0238275Y0015325D03*
X0258275Y0015325D03*
X0248275Y0032825D03*
X0228275Y0032825D03*
X0208275Y0032825D03*
X0268275Y0032825D03*
X0113650Y0140575D03*
X0093650Y0140575D03*
X0103650Y0158075D03*
X0123650Y0158075D03*
X0156350Y0145950D03*
X0176350Y0145950D03*
X0196350Y0145950D03*
X0186350Y0163450D03*
X0166350Y0163450D03*
X0206350Y0163450D03*
D13*
X0239075Y0149025D03*
X0256575Y0159025D03*
X0256575Y0139025D03*
X0239075Y0129025D03*
X0256575Y0119025D03*
X0239075Y0109025D03*
X0256575Y0099025D03*
X0282550Y0071400D03*
X0265050Y0061400D03*
X0282550Y0051400D03*
G36*
X0161743Y0015648D02*
X0161874Y0028146D01*
X0166873Y0028094D01*
X0166742Y0015596D01*
X0161743Y0015648D01*
G37*
G36*
X0141744Y0015857D02*
X0141875Y0028355D01*
X0146874Y0028303D01*
X0146743Y0015805D01*
X0141744Y0015857D01*
G37*
G36*
X0151927Y0033252D02*
X0152058Y0045750D01*
X0157057Y0045698D01*
X0156926Y0033200D01*
X0151927Y0033252D01*
G37*
X0035075Y0053400D03*
X0017575Y0063400D03*
X0035075Y0073400D03*
X0017575Y0083400D03*
X0035075Y0093400D03*
X0017575Y0103400D03*
D14*
X0069550Y0128250D03*
X0069550Y0137350D03*
X0069550Y0146450D03*
D15*
X0045149Y0137350D03*
M02*
