G75*
%MOIN*%
%OFA0B0*%
%FSLAX25Y25*%
%IPPOS*%
%LPD*%
%AMOC8*
5,1,8,0,0,1.08239X$1,22.5*
%
%ADD10C,0.14028*%
%ADD11R,0.08800X0.08800*%
%ADD12C,0.08800*%
%ADD13C,0.05556*%
%ADD14R,0.01800X0.05300*%
%ADD15R,0.05300X0.01800*%
%ADD16R,0.05800X0.13300*%
%ADD17R,0.13300X0.05800*%
%ADD18R,0.09600X0.05600*%
%ADD19R,0.09461X0.14973*%
%ADD20C,0.03778*%
D10*
X0013111Y0013111D03*
X0013111Y0166654D03*
X0280828Y0166654D03*
X0284765Y0009174D03*
D11*
X0021700Y0147700D03*
D12*
X0021700Y0133920D03*
D13*
X0083400Y0096575D03*
X0083400Y0087181D03*
X0083400Y0077575D03*
D14*
X0147948Y0074668D03*
X0149917Y0074668D03*
X0151885Y0074668D03*
X0153854Y0074668D03*
X0155822Y0074668D03*
X0157791Y0074668D03*
X0159759Y0074668D03*
X0161728Y0074668D03*
X0163696Y0074668D03*
X0165665Y0074668D03*
X0167633Y0074668D03*
X0169602Y0074668D03*
X0169602Y0108132D03*
X0167633Y0108132D03*
X0165665Y0108132D03*
X0163696Y0108132D03*
X0161728Y0108132D03*
X0159759Y0108132D03*
X0157791Y0108132D03*
X0155822Y0108132D03*
X0153854Y0108132D03*
X0151885Y0108132D03*
X0149917Y0108132D03*
X0147948Y0108132D03*
D15*
X0142043Y0102227D03*
X0142043Y0100258D03*
X0142043Y0098290D03*
X0142043Y0096321D03*
X0142043Y0094353D03*
X0142043Y0092384D03*
X0142043Y0090416D03*
X0142043Y0088447D03*
X0142043Y0086479D03*
X0142043Y0084510D03*
X0142043Y0082542D03*
X0142043Y0080573D03*
X0175507Y0080573D03*
X0175507Y0082542D03*
X0175507Y0084510D03*
X0175507Y0086479D03*
X0175507Y0088447D03*
X0175507Y0090416D03*
X0175507Y0092384D03*
X0175507Y0094353D03*
X0175507Y0096321D03*
X0175507Y0098290D03*
X0175507Y0100258D03*
X0175507Y0102227D03*
D16*
X0113650Y0140575D03*
X0093650Y0140575D03*
X0103650Y0158075D03*
X0123650Y0158075D03*
X0156350Y0145950D03*
X0176350Y0145950D03*
X0196350Y0145950D03*
X0186350Y0163450D03*
X0166350Y0163450D03*
X0206350Y0163450D03*
X0109225Y0034625D03*
X0089225Y0034625D03*
X0099225Y0017125D03*
X0055450Y0014650D03*
X0035450Y0014650D03*
X0045450Y0032150D03*
X0198275Y0015325D03*
X0218275Y0015325D03*
X0238275Y0015325D03*
X0258275Y0015325D03*
X0248275Y0032825D03*
X0228275Y0032825D03*
X0208275Y0032825D03*
X0268275Y0032825D03*
D17*
X0282550Y0051400D03*
X0265050Y0061400D03*
X0282550Y0071400D03*
X0256575Y0099025D03*
X0239075Y0109025D03*
X0256575Y0119025D03*
X0239075Y0129025D03*
X0256575Y0139025D03*
X0239075Y0149025D03*
X0256575Y0159025D03*
G36*
X0151523Y0032856D02*
X0151662Y0046155D01*
X0157461Y0046094D01*
X0157322Y0032795D01*
X0151523Y0032856D01*
G37*
G36*
X0141340Y0015461D02*
X0141479Y0028760D01*
X0147278Y0028699D01*
X0147139Y0015400D01*
X0141340Y0015461D01*
G37*
G36*
X0161339Y0015252D02*
X0161478Y0028551D01*
X0167277Y0028490D01*
X0167138Y0015191D01*
X0161339Y0015252D01*
G37*
X0035075Y0053400D03*
X0017575Y0063400D03*
X0035075Y0073400D03*
X0017575Y0083400D03*
X0035075Y0093400D03*
X0017575Y0103400D03*
D18*
X0069550Y0128250D03*
X0069550Y0137350D03*
X0069550Y0146450D03*
D19*
X0045149Y0137350D03*
D20*
X0070350Y0158050D03*
X0088075Y0147575D03*
X0078775Y0141750D03*
X0100500Y0140600D03*
X0103550Y0144475D03*
X0128536Y0156375D03*
X0127625Y0169625D03*
X0135400Y0140700D03*
X0134877Y0127200D03*
X0152547Y0114300D03*
X0156525Y0114150D03*
X0160450Y0101639D03*
X0163850Y0098850D03*
X0179400Y0106650D03*
X0196700Y0100425D03*
X0202700Y0092425D03*
X0210350Y0093850D03*
X0206975Y0100425D03*
X0233200Y0096875D03*
X0236975Y0078675D03*
X0269775Y0098350D03*
X0269525Y0136450D03*
X0268525Y0157750D03*
X0171650Y0131575D03*
X0162525Y0131250D03*
X0163050Y0137750D03*
X0137550Y0090225D03*
X0149350Y0083950D03*
X0153850Y0082250D03*
X0167250Y0082550D03*
X0180875Y0070925D03*
X0160907Y0058500D03*
X0165025Y0055050D03*
X0176060Y0056885D03*
X0166485Y0046800D03*
X0149425Y0068125D03*
X0119675Y0080925D03*
X0119950Y0088450D03*
X0085775Y0124300D03*
X0046800Y0093325D03*
X0030750Y0103225D03*
X0079750Y0042125D03*
X0211075Y0015525D03*
X0248875Y0043825D03*
X0272925Y0018850D03*
M02*
